<?xml version="1.0" encoding="utf-8" standalone="no"?>
<!DOCTYPE svg PUBLIC "-//W3C//DTD SVG 1.1//EN"
  "http://www.w3.org/Graphics/SVG/1.1/DTD/svg11.dtd">
<svg xmlns:xlink="http://www.w3.org/1999/xlink" width="865.262607pt" height="323.532pt" viewBox="0 0 865.262607 323.532" xmlns="http://www.w3.org/2000/svg" version="1.1">
 <metadata>
  <rdf:RDF xmlns:dc="http://purl.org/dc/elements/1.1/" xmlns:cc="http://creativecommons.org/ns#" xmlns:rdf="http://www.w3.org/1999/02/22-rdf-syntax-ns#">
   <cc:Work>
    <dc:type rdf:resource="http://purl.org/dc/dcmitype/StillImage"/>
    <dc:date>2026-09-08T13:51:52.591971</dc:date>
    <dc:format>image/svg+xml</dc:format>
    <dc:creator>
     <cc:Agent>
      <dc:title>Matplotlib v3.11.1, https://matplotlib.org/</dc:title>
     </cc:Agent>
    </dc:creator>
   </cc:Work>
  </rdf:RDF>
 </metadata>
 <defs>
  <style type="text/css">*{stroke-linejoin: round; stroke-linecap: butt}</style>
 </defs>
 <g id="figure_1">
  <g id="patch_1">
   <path d="M 0 323.532 
L 865.262607 323.532 
L 865.262607 0 
L 0 0 
z
" style="fill: #ffffff"/>
  </g>
  <g id="axes_1">
   <g id="patch_2">
    <path d="M 54.542607 258.624 
L 218.526281 258.624 
L 218.526281 59.04 
L 54.542607 59.04 
z
" style="fill: #ffffff"/>
   </g>
   <g id="FillBetweenPolyCollection_1">
    <defs>
     <path id="m13dcc6413b" d="M 68.207914 -95.284742 
L 68.207914 -81.460763 
L 136.534444 -99.09748 
L 204.860975 -115.751276 
L 204.860975 -195.499357 
L 204.860975 -195.499357 
L 136.534444 -120.468996 
L 68.207914 -95.284742 
z
" style="stroke: #215caf; stroke-opacity: 0.15"/>
    </defs>
    <g clip-path="url(#p0f9324b63e)">
     <use xlink:href="#m13dcc6413b" x="0" y="323.532" style="fill: #215caf; fill-opacity: 0.15; stroke: #215caf; stroke-opacity: 0.15"/>
    </g>
   </g>
   <g id="matplotlib.axis_1">
    <g id="xtick_1">
     <g id="line2d_1">
      <defs>
       <path id="m67bf07907f" d="M 0 0 
L 0 3.5 
" style="stroke: #000000; stroke-width: 0.8"/>
      </defs>
      <g>
       <use xlink:href="#m67bf07907f" x="68.207914" y="258.624" style="stroke: #000000; stroke-width: 0.8"/>
      </g>
     </g>
     <g id="text_1">
      <!-- 2030 -->
      <g transform="translate(59.310414 271.448219) scale(0.08 -0.08)">
       <defs>
        <path id="ArialMT-15" d="M 3222 541 
L 3222 0 
L 194 0 
Q 188 203 259 391 
Q 375 700 629 1000 
Q 884 1300 1366 1694 
Q 2113 2306 2375 2664 
Q 2638 3022 2638 3341 
Q 2638 3675 2398 3904 
Q 2159 4134 1775 4134 
Q 1369 4134 1125 3890 
Q 881 3647 878 3216 
L 300 3275 
Q 359 3922 746 4261 
Q 1134 4600 1788 4600 
Q 2447 4600 2831 4234 
Q 3216 3869 3216 3328 
Q 3216 3053 3103 2787 
Q 2991 2522 2730 2228 
Q 2469 1934 1863 1422 
Q 1356 997 1212 845 
Q 1069 694 975 541 
L 3222 541 
z
" transform="scale(0.015625)"/>
        <path id="ArialMT-13" d="M 266 2259 
Q 266 3072 433 3567 
Q 600 4063 929 4331 
Q 1259 4600 1759 4600 
Q 2128 4600 2406 4451 
Q 2684 4303 2865 4023 
Q 3047 3744 3150 3342 
Q 3253 2941 3253 2259 
Q 3253 1453 3087 958 
Q 2922 463 2592 192 
Q 2263 -78 1759 -78 
Q 1097 -78 719 397 
Q 266 969 266 2259 
z
M 844 2259 
Q 844 1131 1108 757 
Q 1372 384 1759 384 
Q 2147 384 2411 759 
Q 2675 1134 2675 2259 
Q 2675 3391 2411 3762 
Q 2147 4134 1753 4134 
Q 1366 4134 1134 3806 
Q 844 3388 844 2259 
z
" transform="scale(0.015625)"/>
        <path id="ArialMT-16" d="M 269 1209 
L 831 1284 
Q 928 806 1161 595 
Q 1394 384 1728 384 
Q 2125 384 2398 659 
Q 2672 934 2672 1341 
Q 2672 1728 2419 1979 
Q 2166 2231 1775 2231 
Q 1616 2231 1378 2169 
L 1441 2663 
Q 1497 2656 1531 2656 
Q 1891 2656 2178 2843 
Q 2466 3031 2466 3422 
Q 2466 3731 2256 3934 
Q 2047 4138 1716 4138 
Q 1388 4138 1169 3931 
Q 950 3725 888 3313 
L 325 3413 
Q 428 3978 793 4289 
Q 1159 4600 1703 4600 
Q 2078 4600 2393 4439 
Q 2709 4278 2876 4000 
Q 3044 3722 3044 3409 
Q 3044 3113 2884 2869 
Q 2725 2625 2413 2481 
Q 2819 2388 3044 2092 
Q 3269 1797 3269 1353 
Q 3269 753 2831 336 
Q 2394 -81 1725 -81 
Q 1122 -81 723 278 
Q 325 638 269 1209 
z
" transform="scale(0.015625)"/>
       </defs>
       <use xlink:href="#ArialMT-15"/>
       <use xlink:href="#ArialMT-13" transform="translate(55.609375 0)"/>
       <use xlink:href="#ArialMT-16" transform="translate(111.21875 0)"/>
       <use xlink:href="#ArialMT-13" transform="translate(166.828125 0)"/>
      </g>
     </g>
    </g>
    <g id="xtick_2">
     <g id="line2d_2">
      <g>
       <use xlink:href="#m67bf07907f" x="136.534444" y="258.624" style="stroke: #000000; stroke-width: 0.8"/>
      </g>
     </g>
     <g id="text_2">
      <!-- 2040 -->
      <g transform="translate(127.636944 271.448219) scale(0.08 -0.08)">
       <defs>
        <path id="ArialMT-17" d="M 2069 0 
L 2069 1097 
L 81 1097 
L 81 1613 
L 2172 4581 
L 2631 4581 
L 2631 1613 
L 3250 1613 
L 3250 1097 
L 2631 1097 
L 2631 0 
L 2069 0 
z
M 2069 1613 
L 2069 3678 
L 634 1613 
L 2069 1613 
z
" transform="scale(0.015625)"/>
       </defs>
       <use xlink:href="#ArialMT-15"/>
       <use xlink:href="#ArialMT-13" transform="translate(55.609375 0)"/>
       <use xlink:href="#ArialMT-17" transform="translate(111.21875 0)"/>
       <use xlink:href="#ArialMT-13" transform="translate(166.828125 0)"/>
      </g>
     </g>
    </g>
    <g id="xtick_3">
     <g id="line2d_3">
      <g>
       <use xlink:href="#m67bf07907f" x="204.860975" y="258.624" style="stroke: #000000; stroke-width: 0.8"/>
      </g>
     </g>
     <g id="text_3">
      <!-- 2050 -->
      <g transform="translate(195.963475 271.448219) scale(0.08 -0.08)">
       <defs>
        <path id="ArialMT-18" d="M 266 1200 
L 856 1250 
Q 922 819 1161 601 
Q 1400 384 1738 384 
Q 2144 384 2425 690 
Q 2706 997 2706 1503 
Q 2706 1984 2436 2262 
Q 2166 2541 1728 2541 
Q 1456 2541 1237 2417 
Q 1019 2294 894 2097 
L 366 2166 
L 809 4519 
L 3088 4519 
L 3088 3981 
L 1259 3981 
L 1013 2750 
Q 1425 3038 1878 3038 
Q 2478 3038 2890 2622 
Q 3303 2206 3303 1553 
Q 3303 931 2941 478 
Q 2500 -78 1738 -78 
Q 1113 -78 717 272 
Q 322 622 266 1200 
z
" transform="scale(0.015625)"/>
       </defs>
       <use xlink:href="#ArialMT-15"/>
       <use xlink:href="#ArialMT-13" transform="translate(55.609375 0)"/>
       <use xlink:href="#ArialMT-18" transform="translate(111.21875 0)"/>
       <use xlink:href="#ArialMT-13" transform="translate(166.828125 0)"/>
      </g>
     </g>
    </g>
   </g>
   <g id="matplotlib.axis_2">
    <g id="ytick_1">
     <g id="line2d_4">
      <path d="M 54.542607 238.887456 
L 218.526281 238.887456 
" clip-path="url(#p0f9324b63e)" style="fill: none; stroke: #b0b0b0; stroke-opacity: 0.3; stroke-width: 0.8; stroke-linecap: square"/>
     </g>
     <g id="line2d_5">
      <defs>
       <path id="m5c9d43ce54" d="M 0 0 
L -3.5 0 
" style="stroke: #000000; stroke-width: 0.8"/>
      </defs>
      <g>
       <use xlink:href="#m5c9d43ce54" x="54.542607" y="238.887456" style="stroke: #000000; stroke-width: 0.8"/>
      </g>
     </g>
     <g id="text_4">
      <!-- $\mathdefault{500}$ -->
      <g transform="translate(34.182607 241.799565) scale(0.08 -0.08)">
       <use xlink:href="#ArialMT-18" transform="translate(0 0.125)"/>
       <use xlink:href="#ArialMT-13" transform="translate(55.615234 0.125)"/>
       <use xlink:href="#ArialMT-13" transform="translate(111.230469 0.125)"/>
      </g>
     </g>
    </g>
    <g id="ytick_2">
     <g id="line2d_6">
      <path d="M 54.542607 211.546241 
L 218.526281 211.546241 
" clip-path="url(#p0f9324b63e)" style="fill: none; stroke: #b0b0b0; stroke-opacity: 0.3; stroke-width: 0.8; stroke-linecap: square"/>
     </g>
     <g id="line2d_7">
      <g>
       <use xlink:href="#m5c9d43ce54" x="54.542607" y="211.546241" style="stroke: #000000; stroke-width: 0.8"/>
      </g>
     </g>
     <g id="text_5">
      <!-- $\mathdefault{1000}$ -->
      <g transform="translate(29.702607 214.45835) scale(0.08 -0.08)">
       <defs>
        <path id="ArialMT-14" d="M 2384 0 
L 1822 0 
L 1822 3584 
Q 1619 3391 1289 3197 
Q 959 3003 697 2906 
L 697 3450 
Q 1169 3672 1522 3987 
Q 1875 4303 2022 4600 
L 2384 4600 
L 2384 0 
z
" transform="scale(0.015625)"/>
       </defs>
       <use xlink:href="#ArialMT-14" transform="translate(0 0.125)"/>
       <use xlink:href="#ArialMT-13" transform="translate(55.615234 0.125)"/>
       <use xlink:href="#ArialMT-13" transform="translate(111.230469 0.125)"/>
       <use xlink:href="#ArialMT-13" transform="translate(166.845703 0.125)"/>
      </g>
     </g>
    </g>
    <g id="ytick_3">
     <g id="line2d_8">
      <path d="M 54.542607 184.205026 
L 218.526281 184.205026 
" clip-path="url(#p0f9324b63e)" style="fill: none; stroke: #b0b0b0; stroke-opacity: 0.3; stroke-width: 0.8; stroke-linecap: square"/>
     </g>
     <g id="line2d_9">
      <g>
       <use xlink:href="#m5c9d43ce54" x="54.542607" y="184.205026" style="stroke: #000000; stroke-width: 0.8"/>
      </g>
     </g>
     <g id="text_6">
      <!-- $\mathdefault{1500}$ -->
      <g transform="translate(29.702607 187.117135) scale(0.08 -0.08)">
       <use xlink:href="#ArialMT-14" transform="translate(0 0.125)"/>
       <use xlink:href="#ArialMT-18" transform="translate(55.615234 0.125)"/>
       <use xlink:href="#ArialMT-13" transform="translate(111.230469 0.125)"/>
       <use xlink:href="#ArialMT-13" transform="translate(166.845703 0.125)"/>
      </g>
     </g>
    </g>
    <g id="ytick_4">
     <g id="line2d_10">
      <path d="M 54.542607 156.863811 
L 218.526281 156.863811 
" clip-path="url(#p0f9324b63e)" style="fill: none; stroke: #b0b0b0; stroke-opacity: 0.3; stroke-width: 0.8; stroke-linecap: square"/>
     </g>
     <g id="line2d_11">
      <g>
       <use xlink:href="#m5c9d43ce54" x="54.542607" y="156.863811" style="stroke: #000000; stroke-width: 0.8"/>
      </g>
     </g>
     <g id="text_7">
      <!-- $\mathdefault{2000}$ -->
      <g transform="translate(29.702607 159.77592) scale(0.08 -0.08)">
       <use xlink:href="#ArialMT-15" transform="translate(0 0.125)"/>
       <use xlink:href="#ArialMT-13" transform="translate(55.615234 0.125)"/>
       <use xlink:href="#ArialMT-13" transform="translate(111.230469 0.125)"/>
       <use xlink:href="#ArialMT-13" transform="translate(166.845703 0.125)"/>
      </g>
     </g>
    </g>
    <g id="ytick_5">
     <g id="line2d_12">
      <path d="M 54.542607 129.522596 
L 218.526281 129.522596 
" clip-path="url(#p0f9324b63e)" style="fill: none; stroke: #b0b0b0; stroke-opacity: 0.3; stroke-width: 0.8; stroke-linecap: square"/>
     </g>
     <g id="line2d_13">
      <g>
       <use xlink:href="#m5c9d43ce54" x="54.542607" y="129.522596" style="stroke: #000000; stroke-width: 0.8"/>
      </g>
     </g>
     <g id="text_8">
      <!-- $\mathdefault{2500}$ -->
      <g transform="translate(29.702607 132.434705) scale(0.08 -0.08)">
       <use xlink:href="#ArialMT-15" transform="translate(0 0.125)"/>
       <use xlink:href="#ArialMT-18" transform="translate(55.615234 0.125)"/>
       <use xlink:href="#ArialMT-13" transform="translate(111.230469 0.125)"/>
       <use xlink:href="#ArialMT-13" transform="translate(166.845703 0.125)"/>
      </g>
     </g>
    </g>
    <g id="ytick_6">
     <g id="line2d_14">
      <path d="M 54.542607 102.181381 
L 218.526281 102.181381 
" clip-path="url(#p0f9324b63e)" style="fill: none; stroke: #b0b0b0; stroke-opacity: 0.3; stroke-width: 0.8; stroke-linecap: square"/>
     </g>
     <g id="line2d_15">
      <g>
       <use xlink:href="#m5c9d43ce54" x="54.542607" y="102.181381" style="stroke: #000000; stroke-width: 0.8"/>
      </g>
     </g>
     <g id="text_9">
      <!-- $\mathdefault{3000}$ -->
      <g transform="translate(29.702607 105.093491) scale(0.08 -0.08)">
       <use xlink:href="#ArialMT-16" transform="translate(0 0.125)"/>
       <use xlink:href="#ArialMT-13" transform="translate(55.615234 0.125)"/>
       <use xlink:href="#ArialMT-13" transform="translate(111.230469 0.125)"/>
       <use xlink:href="#ArialMT-13" transform="translate(166.845703 0.125)"/>
      </g>
     </g>
    </g>
    <g id="ytick_7">
     <g id="line2d_16">
      <path d="M 54.542607 74.840166 
L 218.526281 74.840166 
" clip-path="url(#p0f9324b63e)" style="fill: none; stroke: #b0b0b0; stroke-opacity: 0.3; stroke-width: 0.8; stroke-linecap: square"/>
     </g>
     <g id="line2d_17">
      <g>
       <use xlink:href="#m5c9d43ce54" x="54.542607" y="74.840166" style="stroke: #000000; stroke-width: 0.8"/>
      </g>
     </g>
     <g id="text_10">
      <!-- $\mathdefault{3500}$ -->
      <g transform="translate(29.702607 77.752276) scale(0.08 -0.08)">
       <use xlink:href="#ArialMT-16" transform="translate(0 0.125)"/>
       <use xlink:href="#ArialMT-18" transform="translate(55.615234 0.125)"/>
       <use xlink:href="#ArialMT-13" transform="translate(111.230469 0.125)"/>
       <use xlink:href="#ArialMT-13" transform="translate(166.845703 0.125)"/>
      </g>
     </g>
    </g>
    <g id="text_11">
     <!-- West constrained -->
     <g transform="translate(14.025317 191.586883) rotate(-90) scale(0.085 -0.085)">
      <defs>
       <path id="ArialMT-3a" d="M 1294 0 
L 78 4581 
L 700 4581 
L 1397 1578 
Q 1509 1106 1591 641 
Q 1766 1375 1797 1488 
L 2669 4581 
L 3400 4581 
L 4056 2263 
Q 4303 1400 4413 641 
Q 4500 1075 4641 1638 
L 5359 4581 
L 5969 4581 
L 4713 0 
L 4128 0 
L 3163 3491 
Q 3041 3928 3019 4028 
Q 2947 3713 2884 3491 
L 1913 0 
L 1294 0 
z
" transform="scale(0.015625)"/>
       <path id="ArialMT-48" d="M 2694 1069 
L 3275 997 
Q 3138 488 2766 206 
Q 2394 -75 1816 -75 
Q 1088 -75 661 373 
Q 234 822 234 1631 
Q 234 2469 665 2931 
Q 1097 3394 1784 3394 
Q 2450 3394 2872 2941 
Q 3294 2488 3294 1666 
Q 3294 1616 3291 1516 
L 816 1516 
Q 847 969 1125 678 
Q 1403 388 1819 388 
Q 2128 388 2347 550 
Q 2566 713 2694 1069 
z
M 847 1978 
L 2700 1978 
Q 2663 2397 2488 2606 
Q 2219 2931 1791 2931 
Q 1403 2931 1139 2672 
Q 875 2413 847 1978 
z
" transform="scale(0.015625)"/>
       <path id="ArialMT-56" d="M 197 991 
L 753 1078 
Q 800 744 1014 566 
Q 1228 388 1613 388 
Q 2000 388 2187 545 
Q 2375 703 2375 916 
Q 2375 1106 2209 1216 
Q 2094 1291 1634 1406 
Q 1016 1563 777 1677 
Q 538 1791 414 1992 
Q 291 2194 291 2438 
Q 291 2659 392 2848 
Q 494 3038 669 3163 
Q 800 3259 1026 3326 
Q 1253 3394 1513 3394 
Q 1903 3394 2198 3281 
Q 2494 3169 2634 2976 
Q 2775 2784 2828 2463 
L 2278 2388 
Q 2241 2644 2061 2787 
Q 1881 2931 1553 2931 
Q 1166 2931 1000 2803 
Q 834 2675 834 2503 
Q 834 2394 903 2306 
Q 972 2216 1119 2156 
Q 1203 2125 1616 2013 
Q 2213 1853 2448 1751 
Q 2684 1650 2818 1456 
Q 2953 1263 2953 975 
Q 2953 694 2789 445 
Q 2625 197 2315 61 
Q 2006 -75 1616 -75 
Q 969 -75 630 194 
Q 291 463 197 991 
z
" transform="scale(0.015625)"/>
       <path id="ArialMT-57" d="M 1650 503 
L 1731 6 
Q 1494 -44 1306 -44 
Q 1000 -44 831 53 
Q 663 150 594 308 
Q 525 466 525 972 
L 525 2881 
L 113 2881 
L 113 3319 
L 525 3319 
L 525 4141 
L 1084 4478 
L 1084 3319 
L 1650 3319 
L 1650 2881 
L 1084 2881 
L 1084 941 
Q 1084 700 1114 631 
Q 1144 563 1211 522 
Q 1278 481 1403 481 
Q 1497 481 1650 503 
z
" transform="scale(0.015625)"/>
       <path id="ArialMT-3" transform="scale(0.015625)"/>
       <path id="ArialMT-46" d="M 2588 1216 
L 3141 1144 
Q 3050 572 2676 248 
Q 2303 -75 1759 -75 
Q 1078 -75 664 370 
Q 250 816 250 1647 
Q 250 2184 428 2587 
Q 606 2991 970 3192 
Q 1334 3394 1763 3394 
Q 2303 3394 2647 3120 
Q 2991 2847 3088 2344 
L 2541 2259 
Q 2463 2594 2264 2762 
Q 2066 2931 1784 2931 
Q 1359 2931 1093 2626 
Q 828 2322 828 1663 
Q 828 994 1084 691 
Q 1341 388 1753 388 
Q 2084 388 2306 591 
Q 2528 794 2588 1216 
z
" transform="scale(0.015625)"/>
       <path id="ArialMT-52" d="M 213 1659 
Q 213 2581 725 3025 
Q 1153 3394 1769 3394 
Q 2453 3394 2887 2945 
Q 3322 2497 3322 1706 
Q 3322 1066 3130 698 
Q 2938 331 2570 128 
Q 2203 -75 1769 -75 
Q 1072 -75 642 372 
Q 213 819 213 1659 
z
M 791 1659 
Q 791 1022 1069 705 
Q 1347 388 1769 388 
Q 2188 388 2466 706 
Q 2744 1025 2744 1678 
Q 2744 2294 2464 2611 
Q 2184 2928 1769 2928 
Q 1347 2928 1069 2612 
Q 791 2297 791 1659 
z
" transform="scale(0.015625)"/>
       <path id="ArialMT-51" d="M 422 0 
L 422 3319 
L 928 3319 
L 928 2847 
Q 1294 3394 1984 3394 
Q 2284 3394 2536 3286 
Q 2788 3178 2913 3003 
Q 3038 2828 3088 2588 
Q 3119 2431 3119 2041 
L 3119 0 
L 2556 0 
L 2556 2019 
Q 2556 2363 2490 2533 
Q 2425 2703 2258 2804 
Q 2091 2906 1866 2906 
Q 1506 2906 1245 2678 
Q 984 2450 984 1813 
L 984 0 
L 422 0 
z
" transform="scale(0.015625)"/>
       <path id="ArialMT-55" d="M 416 0 
L 416 3319 
L 922 3319 
L 922 2816 
Q 1116 3169 1280 3281 
Q 1444 3394 1641 3394 
Q 1925 3394 2219 3213 
L 2025 2691 
Q 1819 2813 1613 2813 
Q 1428 2813 1281 2702 
Q 1134 2591 1072 2394 
Q 978 2094 978 1738 
L 978 0 
L 416 0 
z
" transform="scale(0.015625)"/>
       <path id="ArialMT-44" d="M 2588 409 
Q 2275 144 1986 34 
Q 1697 -75 1366 -75 
Q 819 -75 525 192 
Q 231 459 231 875 
Q 231 1119 342 1320 
Q 453 1522 633 1644 
Q 813 1766 1038 1828 
Q 1203 1872 1538 1913 
Q 2219 1994 2541 2106 
Q 2544 2222 2544 2253 
Q 2544 2597 2384 2738 
Q 2169 2928 1744 2928 
Q 1347 2928 1158 2789 
Q 969 2650 878 2297 
L 328 2372 
Q 403 2725 575 2942 
Q 747 3159 1072 3276 
Q 1397 3394 1825 3394 
Q 2250 3394 2515 3294 
Q 2781 3194 2906 3042 
Q 3031 2891 3081 2659 
Q 3109 2516 3109 2141 
L 3109 1391 
Q 3109 606 3145 398 
Q 3181 191 3288 0 
L 2700 0 
Q 2613 175 2588 409 
z
M 2541 1666 
Q 2234 1541 1622 1453 
Q 1275 1403 1131 1340 
Q 988 1278 909 1158 
Q 831 1038 831 891 
Q 831 666 1001 516 
Q 1172 366 1500 366 
Q 1825 366 2078 508 
Q 2331 650 2450 897 
Q 2541 1088 2541 1459 
L 2541 1666 
z
" transform="scale(0.015625)"/>
       <path id="ArialMT-4c" d="M 425 3934 
L 425 4581 
L 988 4581 
L 988 3934 
L 425 3934 
z
M 425 0 
L 425 3319 
L 988 3319 
L 988 0 
L 425 0 
z
" transform="scale(0.015625)"/>
       <path id="ArialMT-47" d="M 2575 0 
L 2575 419 
Q 2259 -75 1647 -75 
Q 1250 -75 917 144 
Q 584 363 401 755 
Q 219 1147 219 1656 
Q 219 2153 384 2558 
Q 550 2963 881 3178 
Q 1213 3394 1622 3394 
Q 1922 3394 2156 3267 
Q 2391 3141 2538 2938 
L 2538 4581 
L 3097 4581 
L 3097 0 
L 2575 0 
z
M 797 1656 
Q 797 1019 1065 703 
Q 1334 388 1700 388 
Q 2069 388 2326 689 
Q 2584 991 2584 1609 
Q 2584 2291 2321 2609 
Q 2059 2928 1675 2928 
Q 1300 2928 1048 2622 
Q 797 2316 797 1656 
z
" transform="scale(0.015625)"/>
      </defs>
      <use xlink:href="#ArialMT-3a"/>
      <use xlink:href="#ArialMT-48" transform="translate(92.578125 0)"/>
      <use xlink:href="#ArialMT-56" transform="translate(148.1875 0)"/>
      <use xlink:href="#ArialMT-57" transform="translate(198.1875 0)"/>
      <use xlink:href="#ArialMT-3" transform="translate(225.96875 0)"/>
      <use xlink:href="#ArialMT-46" transform="translate(253.75 0)"/>
      <use xlink:href="#ArialMT-52" transform="translate(303.75 0)"/>
      <use xlink:href="#ArialMT-51" transform="translate(359.359375 0)"/>
      <use xlink:href="#ArialMT-56" transform="translate(414.96875 0)"/>
      <use xlink:href="#ArialMT-57" transform="translate(464.96875 0)"/>
      <use xlink:href="#ArialMT-55" transform="translate(492.75 0)"/>
      <use xlink:href="#ArialMT-44" transform="translate(526.046875 0)"/>
      <use xlink:href="#ArialMT-4c" transform="translate(581.65625 0)"/>
      <use xlink:href="#ArialMT-51" transform="translate(603.875 0)"/>
      <use xlink:href="#ArialMT-48" transform="translate(659.484375 0)"/>
      <use xlink:href="#ArialMT-47" transform="translate(715.09375 0)"/>
     </g>
     <!-- (bn EUR) -->
     <g transform="translate(23.276538 176.543211) rotate(-90) scale(0.085 -0.085)">
      <defs>
       <path id="ArialMT-b" d="M 1497 -1347 
Q 1031 -759 709 28 
Q 388 816 388 1659 
Q 388 2403 628 3084 
Q 909 3875 1497 4659 
L 1900 4659 
Q 1522 4009 1400 3731 
Q 1209 3300 1100 2831 
Q 966 2247 966 1656 
Q 966 153 1900 -1347 
L 1497 -1347 
z
" transform="scale(0.015625)"/>
       <path id="ArialMT-45" d="M 941 0 
L 419 0 
L 419 4581 
L 981 4581 
L 981 2947 
Q 1338 3394 1891 3394 
Q 2197 3394 2470 3270 
Q 2744 3147 2920 2923 
Q 3097 2700 3197 2384 
Q 3297 2069 3297 1709 
Q 3297 856 2875 390 
Q 2453 -75 1863 -75 
Q 1275 -75 941 416 
L 941 0 
z
M 934 1684 
Q 934 1088 1097 822 
Q 1363 388 1816 388 
Q 2184 388 2453 708 
Q 2722 1028 2722 1663 
Q 2722 2313 2464 2622 
Q 2206 2931 1841 2931 
Q 1472 2931 1203 2611 
Q 934 2291 934 1684 
z
" transform="scale(0.015625)"/>
       <path id="ArialMT-28" d="M 506 0 
L 506 4581 
L 3819 4581 
L 3819 4041 
L 1113 4041 
L 1113 2638 
L 3647 2638 
L 3647 2100 
L 1113 2100 
L 1113 541 
L 3925 541 
L 3925 0 
L 506 0 
z
" transform="scale(0.015625)"/>
       <path id="ArialMT-38" d="M 3500 4581 
L 4106 4581 
L 4106 1934 
Q 4106 1244 3950 837 
Q 3794 431 3386 176 
Q 2978 -78 2316 -78 
Q 1672 -78 1262 144 
Q 853 366 678 786 
Q 503 1206 503 1934 
L 503 4581 
L 1109 4581 
L 1109 1938 
Q 1109 1341 1220 1058 
Q 1331 775 1601 622 
Q 1872 469 2263 469 
Q 2931 469 3215 772 
Q 3500 1075 3500 1938 
L 3500 4581 
z
" transform="scale(0.015625)"/>
       <path id="ArialMT-35" d="M 503 0 
L 503 4581 
L 2534 4581 
Q 3147 4581 3465 4457 
Q 3784 4334 3975 4021 
Q 4166 3709 4166 3331 
Q 4166 2844 3850 2509 
Q 3534 2175 2875 2084 
Q 3116 1969 3241 1856 
Q 3506 1613 3744 1247 
L 4541 0 
L 3778 0 
L 3172 953 
Q 2906 1366 2734 1584 
Q 2563 1803 2427 1890 
Q 2291 1978 2150 2013 
Q 2047 2034 1813 2034 
L 1109 2034 
L 1109 0 
L 503 0 
z
M 1109 2559 
L 2413 2559 
Q 2828 2559 3062 2645 
Q 3297 2731 3419 2920 
Q 3541 3109 3541 3331 
Q 3541 3656 3305 3865 
Q 3069 4075 2559 4075 
L 1109 4075 
L 1109 2559 
z
" transform="scale(0.015625)"/>
       <path id="ArialMT-c" d="M 791 -1347 
L 388 -1347 
Q 1322 153 1322 1656 
Q 1322 2244 1188 2822 
Q 1081 3291 891 3722 
Q 769 4003 388 4659 
L 791 4659 
Q 1378 3875 1659 3084 
Q 1900 2403 1900 1659 
Q 1900 816 1576 28 
Q 1253 -759 791 -1347 
z
" transform="scale(0.015625)"/>
      </defs>
      <use xlink:href="#ArialMT-b"/>
      <use xlink:href="#ArialMT-45" transform="translate(33.296875 0)"/>
      <use xlink:href="#ArialMT-51" transform="translate(88.90625 0)"/>
      <use xlink:href="#ArialMT-3" transform="translate(144.515625 0)"/>
      <use xlink:href="#ArialMT-28" transform="translate(172.296875 0)"/>
      <use xlink:href="#ArialMT-38" transform="translate(239 0)"/>
      <use xlink:href="#ArialMT-35" transform="translate(311.21875 0)"/>
      <use xlink:href="#ArialMT-c" transform="translate(383.4375 0)"/>
     </g>
    </g>
   </g>
   <g id="FillBetweenPolyCollection_2">
    <defs>
     <path id="medca8b8c84" d="M 68.207914 -92.469121 
L 68.207914 -84.875868 
L 136.534444 -104.520353 
L 204.860975 -124.326444 
L 204.860975 -172.91974 
L 204.860975 -172.91974 
L 136.534444 -117.5388 
L 68.207914 -92.469121 
z
" style="stroke: #215caf; stroke-opacity: 0.3"/>
    </defs>
    <g clip-path="url(#p0f9324b63e)">
     <use xlink:href="#medca8b8c84" x="0" y="323.532" style="fill: #215caf; fill-opacity: 0.3; stroke: #215caf; stroke-opacity: 0.3"/>
    </g>
   </g>
   <g id="patch_3">
    <path d="M 54.542607 258.624 
L 54.542607 59.04 
" style="fill: none; stroke: #000000; stroke-width: 0.8; stroke-linejoin: miter; stroke-linecap: square"/>
   </g>
   <g id="patch_4">
    <path d="M 218.526281 258.624 
L 218.526281 59.04 
" style="fill: none; stroke: #000000; stroke-width: 0.8; stroke-linejoin: miter; stroke-linecap: square"/>
   </g>
   <g id="patch_5">
    <path d="M 54.542607 258.624 
L 218.526281 258.624 
" style="fill: none; stroke: #000000; stroke-width: 0.8; stroke-linejoin: miter; stroke-linecap: square"/>
   </g>
   <g id="patch_6">
    <path d="M 54.542607 59.04 
L 218.526281 59.04 
" style="fill: none; stroke: #000000; stroke-width: 0.8; stroke-linejoin: miter; stroke-linecap: square"/>
   </g>
   <g id="FillBetweenPolyCollection_3">
    <defs>
     <path id="m7b957f2b03" d="M 68.207914 -89.575714 
L 68.207914 -87.972991 
L 136.534444 -109.777548 
L 204.860975 -135.222114 
L 204.860975 -144.767924 
L 204.860975 -144.767924 
L 136.534444 -112.47217 
L 68.207914 -89.575714 
z
" style="stroke: #215caf; stroke-opacity: 0.85"/>
    </defs>
    <g clip-path="url(#p0f9324b63e)">
     <use xlink:href="#m7b957f2b03" x="0" y="323.532" style="fill: #215caf; fill-opacity: 0.85; stroke: #215caf; stroke-opacity: 0.85"/>
    </g>
   </g>
   <g id="text_12">
    <!-- North -->
    <g transform="translate(121.871788 53.04) scale(0.11 -0.11)">
     <defs>
      <path id="Arial-BoldMT-31" d="M 475 0 
L 475 4581 
L 1375 4581 
L 3250 1522 
L 3250 4581 
L 4109 4581 
L 4109 0 
L 3181 0 
L 1334 2988 
L 1334 0 
L 475 0 
z
" transform="scale(0.015625)"/>
      <path id="Arial-BoldMT-52" d="M 256 1706 
Q 256 2144 472 2553 
Q 688 2963 1083 3178 
Q 1478 3394 1966 3394 
Q 2719 3394 3200 2905 
Q 3681 2416 3681 1669 
Q 3681 916 3195 420 
Q 2709 -75 1972 -75 
Q 1516 -75 1102 131 
Q 688 338 472 736 
Q 256 1134 256 1706 
z
M 1156 1659 
Q 1156 1166 1390 903 
Q 1625 641 1969 641 
Q 2313 641 2545 903 
Q 2778 1166 2778 1666 
Q 2778 2153 2545 2415 
Q 2313 2678 1969 2678 
Q 1625 2678 1390 2415 
Q 1156 2153 1156 1659 
z
" transform="scale(0.015625)"/>
      <path id="Arial-BoldMT-55" d="M 1300 0 
L 422 0 
L 422 3319 
L 1238 3319 
L 1238 2847 
Q 1447 3181 1614 3287 
Q 1781 3394 1994 3394 
Q 2294 3394 2572 3228 
L 2300 2463 
Q 2078 2606 1888 2606 
Q 1703 2606 1575 2504 
Q 1447 2403 1373 2137 
Q 1300 1872 1300 1025 
L 1300 0 
z
" transform="scale(0.015625)"/>
      <path id="Arial-BoldMT-57" d="M 1981 3319 
L 1981 2619 
L 1381 2619 
L 1381 1281 
Q 1381 875 1398 808 
Q 1416 741 1477 697 
Q 1538 653 1625 653 
Q 1747 653 1978 738 
L 2053 56 
Q 1747 -75 1359 -75 
Q 1122 -75 931 4 
Q 741 84 652 211 
Q 563 338 528 553 
Q 500 706 500 1172 
L 500 2619 
L 97 2619 
L 97 3319 
L 500 3319 
L 500 3978 
L 1381 4491 
L 1381 3319 
L 1981 3319 
z
" transform="scale(0.015625)"/>
      <path id="Arial-BoldMT-4b" d="M 1334 4581 
L 1334 2897 
Q 1759 3394 2350 3394 
Q 2653 3394 2897 3281 
Q 3141 3169 3264 2994 
Q 3388 2819 3433 2606 
Q 3478 2394 3478 1947 
L 3478 0 
L 2600 0 
L 2600 1753 
Q 2600 2275 2550 2415 
Q 2500 2556 2373 2639 
Q 2247 2722 2056 2722 
Q 1838 2722 1666 2615 
Q 1494 2509 1414 2295 
Q 1334 2081 1334 1663 
L 1334 0 
L 456 0 
L 456 4581 
L 1334 4581 
z
" transform="scale(0.015625)"/>
     </defs>
     <use xlink:href="#Arial-BoldMT-31"/>
     <use xlink:href="#Arial-BoldMT-52" transform="translate(72.21875 0)"/>
     <use xlink:href="#Arial-BoldMT-55" transform="translate(133.296875 0)"/>
     <use xlink:href="#Arial-BoldMT-57" transform="translate(172.21875 0)"/>
     <use xlink:href="#Arial-BoldMT-4b" transform="translate(205.515625 0)"/>
    </g>
   </g>
   <g id="line2d_18">
    <path d="M 68.207914 236.776436 
L 136.534444 215.860475 
L 204.860975 192.776498 
" clip-path="url(#p0f9324b63e)" style="fill: none; stroke-dasharray: 3.7,1.6; stroke-dashoffset: 0; stroke: #000000; stroke-opacity: 0.8"/>
    <defs>
     <path id="ma67cecc72f" d="M 0 -4 
L -0.898056 -1.236068 
L -3.804226 -1.236068 
L -1.453085 0.472136 
L -2.351141 3.236068 
L -0 1.527864 
L 2.351141 3.236068 
L 1.453085 0.472136 
L 3.804226 -1.236068 
L 0.898056 -1.236068 
z
" style="stroke: #000000; stroke-opacity: 0.8; stroke-linejoin: bevel"/>
    </defs>
    <g clip-path="url(#p0f9324b63e)">
     <use xlink:href="#ma67cecc72f" x="68.207914" y="236.776436" style="fill-opacity: 0.8; stroke: #000000; stroke-opacity: 0.8; stroke-linejoin: bevel"/>
     <use xlink:href="#ma67cecc72f" x="136.534444" y="215.860475" style="fill-opacity: 0.8; stroke: #000000; stroke-opacity: 0.8; stroke-linejoin: bevel"/>
     <use xlink:href="#ma67cecc72f" x="204.860975" y="192.776498" style="fill-opacity: 0.8; stroke: #000000; stroke-opacity: 0.8; stroke-linejoin: bevel"/>
    </g>
   </g>
  </g>
  <g id="axes_2">
   <g id="patch_7">
    <path d="M 267.721383 258.624 
L 431.705056 258.624 
L 431.705056 59.04 
L 267.721383 59.04 
z
" style="fill: #ffffff"/>
   </g>
   <g id="FillBetweenPolyCollection_4">
    <defs>
     <path id="mfb019f8805" d="M 281.386689 -80.820761 
L 281.386689 -69.453938 
L 349.71322 -78.2539 
L 418.03975 -86.834942 
L 418.03975 -160.372703 
L 418.03975 -160.372703 
L 349.71322 -97.611044 
L 281.386689 -80.820761 
z
" style="stroke: #8e6713; stroke-opacity: 0.15"/>
    </defs>
    <g clip-path="url(#pe1be6cc904)">
     <use xlink:href="#mfb019f8805" x="0" y="323.532" style="fill: #8e6713; fill-opacity: 0.15; stroke: #8e6713; stroke-opacity: 0.15"/>
    </g>
   </g>
   <g id="matplotlib.axis_3">
    <g id="xtick_4">
     <g id="line2d_19">
      <g>
       <use xlink:href="#m67bf07907f" x="281.386689" y="258.624" style="stroke: #000000; stroke-width: 0.8"/>
      </g>
     </g>
     <g id="text_13">
      <!-- 2030 -->
      <g transform="translate(272.489189 271.448219) scale(0.08 -0.08)">
       <use xlink:href="#ArialMT-15"/>
       <use xlink:href="#ArialMT-13" transform="translate(55.609375 0)"/>
       <use xlink:href="#ArialMT-16" transform="translate(111.21875 0)"/>
       <use xlink:href="#ArialMT-13" transform="translate(166.828125 0)"/>
      </g>
     </g>
    </g>
    <g id="xtick_5">
     <g id="line2d_20">
      <g>
       <use xlink:href="#m67bf07907f" x="349.71322" y="258.624" style="stroke: #000000; stroke-width: 0.8"/>
      </g>
     </g>
     <g id="text_14">
      <!-- 2040 -->
      <g transform="translate(340.81572 271.448219) scale(0.08 -0.08)">
       <use xlink:href="#ArialMT-15"/>
       <use xlink:href="#ArialMT-13" transform="translate(55.609375 0)"/>
       <use xlink:href="#ArialMT-17" transform="translate(111.21875 0)"/>
       <use xlink:href="#ArialMT-13" transform="translate(166.828125 0)"/>
      </g>
     </g>
    </g>
    <g id="xtick_6">
     <g id="line2d_21">
      <g>
       <use xlink:href="#m67bf07907f" x="418.03975" y="258.624" style="stroke: #000000; stroke-width: 0.8"/>
      </g>
     </g>
     <g id="text_15">
      <!-- 2050 -->
      <g transform="translate(409.14225 271.448219) scale(0.08 -0.08)">
       <use xlink:href="#ArialMT-15"/>
       <use xlink:href="#ArialMT-13" transform="translate(55.609375 0)"/>
       <use xlink:href="#ArialMT-18" transform="translate(111.21875 0)"/>
       <use xlink:href="#ArialMT-13" transform="translate(166.828125 0)"/>
      </g>
     </g>
    </g>
   </g>
   <g id="matplotlib.axis_4">
    <g id="ytick_8">
     <g id="line2d_22">
      <path d="M 267.721383 238.887456 
L 431.705056 238.887456 
" clip-path="url(#pe1be6cc904)" style="fill: none; stroke: #b0b0b0; stroke-opacity: 0.3; stroke-width: 0.8; stroke-linecap: square"/>
     </g>
     <g id="line2d_23">
      <g>
       <use xlink:href="#m5c9d43ce54" x="267.721383" y="238.887456" style="stroke: #000000; stroke-width: 0.8"/>
      </g>
     </g>
     <g id="text_16">
      <!-- $\mathdefault{500}$ -->
      <g transform="translate(247.361383 241.799565) scale(0.08 -0.08)">
       <use xlink:href="#ArialMT-18" transform="translate(0 0.125)"/>
       <use xlink:href="#ArialMT-13" transform="translate(55.615234 0.125)"/>
       <use xlink:href="#ArialMT-13" transform="translate(111.230469 0.125)"/>
      </g>
     </g>
    </g>
    <g id="ytick_9">
     <g id="line2d_24">
      <path d="M 267.721383 211.546241 
L 431.705056 211.546241 
" clip-path="url(#pe1be6cc904)" style="fill: none; stroke: #b0b0b0; stroke-opacity: 0.3; stroke-width: 0.8; stroke-linecap: square"/>
     </g>
     <g id="line2d_25">
      <g>
       <use xlink:href="#m5c9d43ce54" x="267.721383" y="211.546241" style="stroke: #000000; stroke-width: 0.8"/>
      </g>
     </g>
     <g id="text_17">
      <!-- $\mathdefault{1000}$ -->
      <g transform="translate(242.881383 214.45835) scale(0.08 -0.08)">
       <use xlink:href="#ArialMT-14" transform="translate(0 0.125)"/>
       <use xlink:href="#ArialMT-13" transform="translate(55.615234 0.125)"/>
       <use xlink:href="#ArialMT-13" transform="translate(111.230469 0.125)"/>
       <use xlink:href="#ArialMT-13" transform="translate(166.845703 0.125)"/>
      </g>
     </g>
    </g>
    <g id="ytick_10">
     <g id="line2d_26">
      <path d="M 267.721383 184.205026 
L 431.705056 184.205026 
" clip-path="url(#pe1be6cc904)" style="fill: none; stroke: #b0b0b0; stroke-opacity: 0.3; stroke-width: 0.8; stroke-linecap: square"/>
     </g>
     <g id="line2d_27">
      <g>
       <use xlink:href="#m5c9d43ce54" x="267.721383" y="184.205026" style="stroke: #000000; stroke-width: 0.8"/>
      </g>
     </g>
     <g id="text_18">
      <!-- $\mathdefault{1500}$ -->
      <g transform="translate(242.881383 187.117135) scale(0.08 -0.08)">
       <use xlink:href="#ArialMT-14" transform="translate(0 0.125)"/>
       <use xlink:href="#ArialMT-18" transform="translate(55.615234 0.125)"/>
       <use xlink:href="#ArialMT-13" transform="translate(111.230469 0.125)"/>
       <use xlink:href="#ArialMT-13" transform="translate(166.845703 0.125)"/>
      </g>
     </g>
    </g>
    <g id="ytick_11">
     <g id="line2d_28">
      <path d="M 267.721383 156.863811 
L 431.705056 156.863811 
" clip-path="url(#pe1be6cc904)" style="fill: none; stroke: #b0b0b0; stroke-opacity: 0.3; stroke-width: 0.8; stroke-linecap: square"/>
     </g>
     <g id="line2d_29">
      <g>
       <use xlink:href="#m5c9d43ce54" x="267.721383" y="156.863811" style="stroke: #000000; stroke-width: 0.8"/>
      </g>
     </g>
     <g id="text_19">
      <!-- $\mathdefault{2000}$ -->
      <g transform="translate(242.881383 159.77592) scale(0.08 -0.08)">
       <use xlink:href="#ArialMT-15" transform="translate(0 0.125)"/>
       <use xlink:href="#ArialMT-13" transform="translate(55.615234 0.125)"/>
       <use xlink:href="#ArialMT-13" transform="translate(111.230469 0.125)"/>
       <use xlink:href="#ArialMT-13" transform="translate(166.845703 0.125)"/>
      </g>
     </g>
    </g>
    <g id="ytick_12">
     <g id="line2d_30">
      <path d="M 267.721383 129.522596 
L 431.705056 129.522596 
" clip-path="url(#pe1be6cc904)" style="fill: none; stroke: #b0b0b0; stroke-opacity: 0.3; stroke-width: 0.8; stroke-linecap: square"/>
     </g>
     <g id="line2d_31">
      <g>
       <use xlink:href="#m5c9d43ce54" x="267.721383" y="129.522596" style="stroke: #000000; stroke-width: 0.8"/>
      </g>
     </g>
     <g id="text_20">
      <!-- $\mathdefault{2500}$ -->
      <g transform="translate(242.881383 132.434705) scale(0.08 -0.08)">
       <use xlink:href="#ArialMT-15" transform="translate(0 0.125)"/>
       <use xlink:href="#ArialMT-18" transform="translate(55.615234 0.125)"/>
       <use xlink:href="#ArialMT-13" transform="translate(111.230469 0.125)"/>
       <use xlink:href="#ArialMT-13" transform="translate(166.845703 0.125)"/>
      </g>
     </g>
    </g>
    <g id="ytick_13">
     <g id="line2d_32">
      <path d="M 267.721383 102.181381 
L 431.705056 102.181381 
" clip-path="url(#pe1be6cc904)" style="fill: none; stroke: #b0b0b0; stroke-opacity: 0.3; stroke-width: 0.8; stroke-linecap: square"/>
     </g>
     <g id="line2d_33">
      <g>
       <use xlink:href="#m5c9d43ce54" x="267.721383" y="102.181381" style="stroke: #000000; stroke-width: 0.8"/>
      </g>
     </g>
     <g id="text_21">
      <!-- $\mathdefault{3000}$ -->
      <g transform="translate(242.881383 105.093491) scale(0.08 -0.08)">
       <use xlink:href="#ArialMT-16" transform="translate(0 0.125)"/>
       <use xlink:href="#ArialMT-13" transform="translate(55.615234 0.125)"/>
       <use xlink:href="#ArialMT-13" transform="translate(111.230469 0.125)"/>
       <use xlink:href="#ArialMT-13" transform="translate(166.845703 0.125)"/>
      </g>
     </g>
    </g>
    <g id="ytick_14">
     <g id="line2d_34">
      <path d="M 267.721383 74.840166 
L 431.705056 74.840166 
" clip-path="url(#pe1be6cc904)" style="fill: none; stroke: #b0b0b0; stroke-opacity: 0.3; stroke-width: 0.8; stroke-linecap: square"/>
     </g>
     <g id="line2d_35">
      <g>
       <use xlink:href="#m5c9d43ce54" x="267.721383" y="74.840166" style="stroke: #000000; stroke-width: 0.8"/>
      </g>
     </g>
     <g id="text_22">
      <!-- $\mathdefault{3500}$ -->
      <g transform="translate(242.881383 77.752276) scale(0.08 -0.08)">
       <use xlink:href="#ArialMT-16" transform="translate(0 0.125)"/>
       <use xlink:href="#ArialMT-18" transform="translate(55.615234 0.125)"/>
       <use xlink:href="#ArialMT-13" transform="translate(111.230469 0.125)"/>
       <use xlink:href="#ArialMT-13" transform="translate(166.845703 0.125)"/>
      </g>
     </g>
    </g>
   </g>
   <g id="FillBetweenPolyCollection_5">
    <defs>
     <path id="m6e9018f822" d="M 281.386689 -78.044539 
L 281.386689 -72.128346 
L 349.71322 -82.476144 
L 418.03975 -92.623365 
L 418.03975 -130.295464 
L 418.03975 -130.295464 
L 349.71322 -94.60586 
L 281.386689 -78.044539 
z
" style="stroke: #8e6713; stroke-opacity: 0.3"/>
    </defs>
    <g clip-path="url(#pe1be6cc904)">
     <use xlink:href="#m6e9018f822" x="0" y="323.532" style="fill: #8e6713; fill-opacity: 0.3; stroke: #8e6713; stroke-opacity: 0.3"/>
    </g>
   </g>
   <g id="patch_8">
    <path d="M 267.721383 258.624 
L 267.721383 59.04 
" style="fill: none; stroke: #000000; stroke-width: 0.8; stroke-linejoin: miter; stroke-linecap: square"/>
   </g>
   <g id="patch_9">
    <path d="M 431.705056 258.624 
L 431.705056 59.04 
" style="fill: none; stroke: #000000; stroke-width: 0.8; stroke-linejoin: miter; stroke-linecap: square"/>
   </g>
   <g id="patch_10">
    <path d="M 267.721383 258.624 
L 431.705056 258.624 
" style="fill: none; stroke: #000000; stroke-width: 0.8; stroke-linejoin: miter; stroke-linecap: square"/>
   </g>
   <g id="patch_11">
    <path d="M 267.721383 59.04 
L 431.705056 59.04 
" style="fill: none; stroke: #000000; stroke-width: 0.8; stroke-linejoin: miter; stroke-linecap: square"/>
   </g>
   <g id="FillBetweenPolyCollection_6">
    <defs>
     <path id="mf70c1b5905" d="M 281.386689 -75.363699 
L 281.386689 -73.757225 
L 349.71322 -85.841143 
L 418.03975 -98.630737 
L 418.03975 -106.038528 
L 418.03975 -106.038528 
L 349.71322 -88.729952 
L 281.386689 -75.363699 
z
" style="stroke: #8e6713; stroke-opacity: 0.85"/>
    </defs>
    <g clip-path="url(#pe1be6cc904)">
     <use xlink:href="#mf70c1b5905" x="0" y="323.532" style="fill: #8e6713; fill-opacity: 0.85; stroke: #8e6713; stroke-opacity: 0.85"/>
    </g>
   </g>
   <g id="text_23">
    <!-- East -->
    <g transform="translate(338.096188 53.04) scale(0.11 -0.11)">
     <defs>
      <path id="Arial-BoldMT-28" d="M 466 0 
L 466 4581 
L 3863 4581 
L 3863 3806 
L 1391 3806 
L 1391 2791 
L 3691 2791 
L 3691 2019 
L 1391 2019 
L 1391 772 
L 3950 772 
L 3950 0 
L 466 0 
z
" transform="scale(0.015625)"/>
      <path id="Arial-BoldMT-44" d="M 1116 2306 
L 319 2450 
Q 453 2931 781 3162 
Q 1109 3394 1756 3394 
Q 2344 3394 2631 3255 
Q 2919 3116 3036 2902 
Q 3153 2688 3153 2116 
L 3144 1091 
Q 3144 653 3186 445 
Q 3228 238 3344 0 
L 2475 0 
Q 2441 88 2391 259 
Q 2369 338 2359 363 
Q 2134 144 1878 34 
Q 1622 -75 1331 -75 
Q 819 -75 523 203 
Q 228 481 228 906 
Q 228 1188 362 1408 
Q 497 1628 739 1745 
Q 981 1863 1438 1950 
Q 2053 2066 2291 2166 
L 2291 2253 
Q 2291 2506 2166 2614 
Q 2041 2722 1694 2722 
Q 1459 2722 1328 2630 
Q 1197 2538 1116 2306 
z
M 2291 1594 
Q 2122 1538 1756 1459 
Q 1391 1381 1278 1306 
Q 1106 1184 1106 997 
Q 1106 813 1243 678 
Q 1381 544 1594 544 
Q 1831 544 2047 700 
Q 2206 819 2256 991 
Q 2291 1103 2291 1419 
L 2291 1594 
z
" transform="scale(0.015625)"/>
      <path id="Arial-BoldMT-56" d="M 150 947 
L 1031 1081 
Q 1088 825 1259 692 
Q 1431 559 1741 559 
Q 2081 559 2253 684 
Q 2369 772 2369 919 
Q 2369 1019 2306 1084 
Q 2241 1147 2013 1200 
Q 950 1434 666 1628 
Q 272 1897 272 2375 
Q 272 2806 612 3100 
Q 953 3394 1669 3394 
Q 2350 3394 2681 3172 
Q 3013 2950 3138 2516 
L 2309 2363 
Q 2256 2556 2107 2659 
Q 1959 2763 1684 2763 
Q 1338 2763 1188 2666 
Q 1088 2597 1088 2488 
Q 1088 2394 1175 2328 
Q 1294 2241 1995 2081 
Q 2697 1922 2975 1691 
Q 3250 1456 3250 1038 
Q 3250 581 2869 253 
Q 2488 -75 1741 -75 
Q 1063 -75 667 200 
Q 272 475 150 947 
z
" transform="scale(0.015625)"/>
     </defs>
     <use xlink:href="#Arial-BoldMT-28"/>
     <use xlink:href="#Arial-BoldMT-44" transform="translate(66.703125 0)"/>
     <use xlink:href="#Arial-BoldMT-56" transform="translate(122.3125 0)"/>
     <use xlink:href="#Arial-BoldMT-57" transform="translate(177.921875 0)"/>
    </g>
   </g>
   <g id="line2d_36">
    <path d="M 281.386689 250.003622 
L 349.71322 238.408092 
L 418.03975 226.449517 
" clip-path="url(#pe1be6cc904)" style="fill: none; stroke-dasharray: 3.7,1.6; stroke-dashoffset: 0; stroke: #000000; stroke-opacity: 0.8"/>
    <g clip-path="url(#pe1be6cc904)">
     <use xlink:href="#ma67cecc72f" x="281.386689" y="250.003622" style="fill-opacity: 0.8; stroke: #000000; stroke-opacity: 0.8; stroke-linejoin: bevel"/>
     <use xlink:href="#ma67cecc72f" x="349.71322" y="238.408092" style="fill-opacity: 0.8; stroke: #000000; stroke-opacity: 0.8; stroke-linejoin: bevel"/>
     <use xlink:href="#ma67cecc72f" x="418.03975" y="226.449517" style="fill-opacity: 0.8; stroke: #000000; stroke-opacity: 0.8; stroke-linejoin: bevel"/>
    </g>
   </g>
  </g>
  <g id="axes_3">
   <g id="patch_12">
    <path d="M 480.900158 258.624 
L 644.883832 258.624 
L 644.883832 59.04 
L 480.900158 59.04 
z
" style="fill: #ffffff"/>
   </g>
   <g id="FillBetweenPolyCollection_7">
    <defs>
     <path id="mce77e26b79" d="M 494.565465 -97.368724 
L 494.565465 -83.008324 
L 562.891995 -101.226947 
L 631.218526 -118.860943 
L 631.218526 -200.300791 
L 631.218526 -200.300791 
L 562.891995 -126.413553 
L 494.565465 -97.368724 
z
" style="stroke: #627313; stroke-opacity: 0.15"/>
    </defs>
    <g clip-path="url(#p9fae7d0226)">
     <use xlink:href="#mce77e26b79" x="0" y="323.532" style="fill: #627313; fill-opacity: 0.15; stroke: #627313; stroke-opacity: 0.15"/>
    </g>
   </g>
   <g id="matplotlib.axis_5">
    <g id="xtick_7">
     <g id="line2d_37">
      <g>
       <use xlink:href="#m67bf07907f" x="494.565465" y="258.624" style="stroke: #000000; stroke-width: 0.8"/>
      </g>
     </g>
     <g id="text_24">
      <!-- 2030 -->
      <g transform="translate(485.667965 271.448219) scale(0.08 -0.08)">
       <use xlink:href="#ArialMT-15"/>
       <use xlink:href="#ArialMT-13" transform="translate(55.609375 0)"/>
       <use xlink:href="#ArialMT-16" transform="translate(111.21875 0)"/>
       <use xlink:href="#ArialMT-13" transform="translate(166.828125 0)"/>
      </g>
     </g>
    </g>
    <g id="xtick_8">
     <g id="line2d_38">
      <g>
       <use xlink:href="#m67bf07907f" x="562.891995" y="258.624" style="stroke: #000000; stroke-width: 0.8"/>
      </g>
     </g>
     <g id="text_25">
      <!-- 2040 -->
      <g transform="translate(553.994495 271.448219) scale(0.08 -0.08)">
       <use xlink:href="#ArialMT-15"/>
       <use xlink:href="#ArialMT-13" transform="translate(55.609375 0)"/>
       <use xlink:href="#ArialMT-17" transform="translate(111.21875 0)"/>
       <use xlink:href="#ArialMT-13" transform="translate(166.828125 0)"/>
      </g>
     </g>
    </g>
    <g id="xtick_9">
     <g id="line2d_39">
      <g>
       <use xlink:href="#m67bf07907f" x="631.218526" y="258.624" style="stroke: #000000; stroke-width: 0.8"/>
      </g>
     </g>
     <g id="text_26">
      <!-- 2050 -->
      <g transform="translate(622.321026 271.448219) scale(0.08 -0.08)">
       <use xlink:href="#ArialMT-15"/>
       <use xlink:href="#ArialMT-13" transform="translate(55.609375 0)"/>
       <use xlink:href="#ArialMT-18" transform="translate(111.21875 0)"/>
       <use xlink:href="#ArialMT-13" transform="translate(166.828125 0)"/>
      </g>
     </g>
    </g>
   </g>
   <g id="matplotlib.axis_6">
    <g id="ytick_15">
     <g id="line2d_40">
      <path d="M 480.900158 238.887456 
L 644.883832 238.887456 
" clip-path="url(#p9fae7d0226)" style="fill: none; stroke: #b0b0b0; stroke-opacity: 0.3; stroke-width: 0.8; stroke-linecap: square"/>
     </g>
     <g id="line2d_41">
      <g>
       <use xlink:href="#m5c9d43ce54" x="480.900158" y="238.887456" style="stroke: #000000; stroke-width: 0.8"/>
      </g>
     </g>
     <g id="text_27">
      <!-- $\mathdefault{500}$ -->
      <g transform="translate(460.540158 241.799565) scale(0.08 -0.08)">
       <use xlink:href="#ArialMT-18" transform="translate(0 0.125)"/>
       <use xlink:href="#ArialMT-13" transform="translate(55.615234 0.125)"/>
       <use xlink:href="#ArialMT-13" transform="translate(111.230469 0.125)"/>
      </g>
     </g>
    </g>
    <g id="ytick_16">
     <g id="line2d_42">
      <path d="M 480.900158 211.546241 
L 644.883832 211.546241 
" clip-path="url(#p9fae7d0226)" style="fill: none; stroke: #b0b0b0; stroke-opacity: 0.3; stroke-width: 0.8; stroke-linecap: square"/>
     </g>
     <g id="line2d_43">
      <g>
       <use xlink:href="#m5c9d43ce54" x="480.900158" y="211.546241" style="stroke: #000000; stroke-width: 0.8"/>
      </g>
     </g>
     <g id="text_28">
      <!-- $\mathdefault{1000}$ -->
      <g transform="translate(456.060158 214.45835) scale(0.08 -0.08)">
       <use xlink:href="#ArialMT-14" transform="translate(0 0.125)"/>
       <use xlink:href="#ArialMT-13" transform="translate(55.615234 0.125)"/>
       <use xlink:href="#ArialMT-13" transform="translate(111.230469 0.125)"/>
       <use xlink:href="#ArialMT-13" transform="translate(166.845703 0.125)"/>
      </g>
     </g>
    </g>
    <g id="ytick_17">
     <g id="line2d_44">
      <path d="M 480.900158 184.205026 
L 644.883832 184.205026 
" clip-path="url(#p9fae7d0226)" style="fill: none; stroke: #b0b0b0; stroke-opacity: 0.3; stroke-width: 0.8; stroke-linecap: square"/>
     </g>
     <g id="line2d_45">
      <g>
       <use xlink:href="#m5c9d43ce54" x="480.900158" y="184.205026" style="stroke: #000000; stroke-width: 0.8"/>
      </g>
     </g>
     <g id="text_29">
      <!-- $\mathdefault{1500}$ -->
      <g transform="translate(456.060158 187.117135) scale(0.08 -0.08)">
       <use xlink:href="#ArialMT-14" transform="translate(0 0.125)"/>
       <use xlink:href="#ArialMT-18" transform="translate(55.615234 0.125)"/>
       <use xlink:href="#ArialMT-13" transform="translate(111.230469 0.125)"/>
       <use xlink:href="#ArialMT-13" transform="translate(166.845703 0.125)"/>
      </g>
     </g>
    </g>
    <g id="ytick_18">
     <g id="line2d_46">
      <path d="M 480.900158 156.863811 
L 644.883832 156.863811 
" clip-path="url(#p9fae7d0226)" style="fill: none; stroke: #b0b0b0; stroke-opacity: 0.3; stroke-width: 0.8; stroke-linecap: square"/>
     </g>
     <g id="line2d_47">
      <g>
       <use xlink:href="#m5c9d43ce54" x="480.900158" y="156.863811" style="stroke: #000000; stroke-width: 0.8"/>
      </g>
     </g>
     <g id="text_30">
      <!-- $\mathdefault{2000}$ -->
      <g transform="translate(456.060158 159.77592) scale(0.08 -0.08)">
       <use xlink:href="#ArialMT-15" transform="translate(0 0.125)"/>
       <use xlink:href="#ArialMT-13" transform="translate(55.615234 0.125)"/>
       <use xlink:href="#ArialMT-13" transform="translate(111.230469 0.125)"/>
       <use xlink:href="#ArialMT-13" transform="translate(166.845703 0.125)"/>
      </g>
     </g>
    </g>
    <g id="ytick_19">
     <g id="line2d_48">
      <path d="M 480.900158 129.522596 
L 644.883832 129.522596 
" clip-path="url(#p9fae7d0226)" style="fill: none; stroke: #b0b0b0; stroke-opacity: 0.3; stroke-width: 0.8; stroke-linecap: square"/>
     </g>
     <g id="line2d_49">
      <g>
       <use xlink:href="#m5c9d43ce54" x="480.900158" y="129.522596" style="stroke: #000000; stroke-width: 0.8"/>
      </g>
     </g>
     <g id="text_31">
      <!-- $\mathdefault{2500}$ -->
      <g transform="translate(456.060158 132.434705) scale(0.08 -0.08)">
       <use xlink:href="#ArialMT-15" transform="translate(0 0.125)"/>
       <use xlink:href="#ArialMT-18" transform="translate(55.615234 0.125)"/>
       <use xlink:href="#ArialMT-13" transform="translate(111.230469 0.125)"/>
       <use xlink:href="#ArialMT-13" transform="translate(166.845703 0.125)"/>
      </g>
     </g>
    </g>
    <g id="ytick_20">
     <g id="line2d_50">
      <path d="M 480.900158 102.181381 
L 644.883832 102.181381 
" clip-path="url(#p9fae7d0226)" style="fill: none; stroke: #b0b0b0; stroke-opacity: 0.3; stroke-width: 0.8; stroke-linecap: square"/>
     </g>
     <g id="line2d_51">
      <g>
       <use xlink:href="#m5c9d43ce54" x="480.900158" y="102.181381" style="stroke: #000000; stroke-width: 0.8"/>
      </g>
     </g>
     <g id="text_32">
      <!-- $\mathdefault{3000}$ -->
      <g transform="translate(456.060158 105.093491) scale(0.08 -0.08)">
       <use xlink:href="#ArialMT-16" transform="translate(0 0.125)"/>
       <use xlink:href="#ArialMT-13" transform="translate(55.615234 0.125)"/>
       <use xlink:href="#ArialMT-13" transform="translate(111.230469 0.125)"/>
       <use xlink:href="#ArialMT-13" transform="translate(166.845703 0.125)"/>
      </g>
     </g>
    </g>
    <g id="ytick_21">
     <g id="line2d_52">
      <path d="M 480.900158 74.840166 
L 644.883832 74.840166 
" clip-path="url(#p9fae7d0226)" style="fill: none; stroke: #b0b0b0; stroke-opacity: 0.3; stroke-width: 0.8; stroke-linecap: square"/>
     </g>
     <g id="line2d_53">
      <g>
       <use xlink:href="#m5c9d43ce54" x="480.900158" y="74.840166" style="stroke: #000000; stroke-width: 0.8"/>
      </g>
     </g>
     <g id="text_33">
      <!-- $\mathdefault{3500}$ -->
      <g transform="translate(456.060158 77.752276) scale(0.08 -0.08)">
       <use xlink:href="#ArialMT-16" transform="translate(0 0.125)"/>
       <use xlink:href="#ArialMT-18" transform="translate(55.615234 0.125)"/>
       <use xlink:href="#ArialMT-13" transform="translate(111.230469 0.125)"/>
       <use xlink:href="#ArialMT-13" transform="translate(166.845703 0.125)"/>
      </g>
     </g>
    </g>
   </g>
   <g id="FillBetweenPolyCollection_8">
    <defs>
     <path id="m13c61212a3" d="M 494.565465 -93.343632 
L 494.565465 -85.964906 
L 562.891995 -107.195311 
L 631.218526 -128.89287 
L 631.218526 -177.693411 
L 631.218526 -177.693411 
L 562.891995 -122.939554 
L 494.565465 -93.343632 
z
" style="stroke: #627313; stroke-opacity: 0.3"/>
    </defs>
    <g clip-path="url(#p9fae7d0226)">
     <use xlink:href="#m13c61212a3" x="0" y="323.532" style="fill: #627313; fill-opacity: 0.3; stroke: #627313; stroke-opacity: 0.3"/>
    </g>
   </g>
   <g id="patch_13">
    <path d="M 480.900158 258.624 
L 480.900158 59.04 
" style="fill: none; stroke: #000000; stroke-width: 0.8; stroke-linejoin: miter; stroke-linecap: square"/>
   </g>
   <g id="patch_14">
    <path d="M 644.883832 258.624 
L 644.883832 59.04 
" style="fill: none; stroke: #000000; stroke-width: 0.8; stroke-linejoin: miter; stroke-linecap: square"/>
   </g>
   <g id="patch_15">
    <path d="M 480.900158 258.624 
L 644.883832 258.624 
" style="fill: none; stroke: #000000; stroke-width: 0.8; stroke-linejoin: miter; stroke-linecap: square"/>
   </g>
   <g id="patch_16">
    <path d="M 480.900158 59.04 
L 644.883832 59.04 
" style="fill: none; stroke: #000000; stroke-width: 0.8; stroke-linejoin: miter; stroke-linecap: square"/>
   </g>
   <g id="FillBetweenPolyCollection_9">
    <defs>
     <path id="mbf51db0786" d="M 494.565465 -89.94 
L 494.565465 -88.467729 
L 562.891995 -113.147443 
L 631.218526 -144.148733 
L 631.218526 -153.79978 
L 631.218526 -153.79978 
L 562.891995 -116.234949 
L 494.565465 -89.94 
z
" style="stroke: #627313; stroke-opacity: 0.85"/>
    </defs>
    <g clip-path="url(#p9fae7d0226)">
     <use xlink:href="#mbf51db0786" x="0" y="323.532" style="fill: #627313; fill-opacity: 0.85; stroke: #627313; stroke-opacity: 0.85"/>
    </g>
   </g>
   <g id="text_34">
    <!-- South -->
    <g transform="translate(547.314105 53.04) scale(0.11 -0.11)">
     <defs>
      <path id="Arial-BoldMT-36" d="M 231 1491 
L 1131 1578 
Q 1213 1125 1461 912 
Q 1709 700 2131 700 
Q 2578 700 2804 889 
Q 3031 1078 3031 1331 
Q 3031 1494 2936 1608 
Q 2841 1722 2603 1806 
Q 2441 1863 1863 2006 
Q 1119 2191 819 2459 
Q 397 2838 397 3381 
Q 397 3731 595 4036 
Q 794 4341 1167 4500 
Q 1541 4659 2069 4659 
Q 2931 4659 3367 4281 
Q 3803 3903 3825 3272 
L 2900 3231 
Q 2841 3584 2645 3739 
Q 2450 3894 2059 3894 
Q 1656 3894 1428 3728 
Q 1281 3622 1281 3444 
Q 1281 3281 1419 3166 
Q 1594 3019 2269 2859 
Q 2944 2700 3267 2529 
Q 3591 2359 3773 2064 
Q 3956 1769 3956 1334 
Q 3956 941 3737 597 
Q 3519 253 3119 86 
Q 2719 -81 2122 -81 
Q 1253 -81 787 320 
Q 322 722 231 1491 
z
" transform="scale(0.015625)"/>
      <path id="Arial-BoldMT-58" d="M 2644 0 
L 2644 497 
Q 2463 231 2167 78 
Q 1872 -75 1544 -75 
Q 1209 -75 943 72 
Q 678 219 559 484 
Q 441 750 441 1219 
L 441 3319 
L 1319 3319 
L 1319 1794 
Q 1319 1094 1367 936 
Q 1416 778 1544 686 
Q 1672 594 1869 594 
Q 2094 594 2272 717 
Q 2450 841 2515 1023 
Q 2581 1206 2581 1919 
L 2581 3319 
L 3459 3319 
L 3459 0 
L 2644 0 
z
" transform="scale(0.015625)"/>
     </defs>
     <use xlink:href="#Arial-BoldMT-36"/>
     <use xlink:href="#Arial-BoldMT-52" transform="translate(66.703125 0)"/>
     <use xlink:href="#Arial-BoldMT-58" transform="translate(127.78125 0)"/>
     <use xlink:href="#Arial-BoldMT-57" transform="translate(188.859375 0)"/>
     <use xlink:href="#Arial-BoldMT-4b" transform="translate(222.15625 0)"/>
    </g>
   </g>
   <g id="line2d_54">
    <path d="M 494.565465 235.558273 
L 562.891995 212.087394 
L 631.218526 181.306905 
" clip-path="url(#p9fae7d0226)" style="fill: none; stroke-dasharray: 3.7,1.6; stroke-dashoffset: 0; stroke: #000000; stroke-opacity: 0.8"/>
    <g clip-path="url(#p9fae7d0226)">
     <use xlink:href="#ma67cecc72f" x="494.565465" y="235.558273" style="fill-opacity: 0.8; stroke: #000000; stroke-opacity: 0.8; stroke-linejoin: bevel"/>
     <use xlink:href="#ma67cecc72f" x="562.891995" y="212.087394" style="fill-opacity: 0.8; stroke: #000000; stroke-opacity: 0.8; stroke-linejoin: bevel"/>
     <use xlink:href="#ma67cecc72f" x="631.218526" y="181.306905" style="fill-opacity: 0.8; stroke: #000000; stroke-opacity: 0.8; stroke-linejoin: bevel"/>
    </g>
   </g>
  </g>
  <g id="axes_4">
   <g id="patch_17">
    <path d="M 694.078934 258.624 
L 858.062607 258.624 
L 858.062607 59.04 
L 694.078934 59.04 
z
" style="fill: #ffffff"/>
   </g>
   <g id="FillBetweenPolyCollection_10">
    <defs>
     <path id="m99dee34bc2" d="M 707.74424 -122.162556 
L 707.74424 -104.702711 
L 776.070771 -138.571578 
L 844.397301 -170.997354 
L 844.397301 -256.882986 
L 844.397301 -256.882986 
L 776.070771 -167.939824 
L 707.74424 -122.162556 
z
" style="stroke: #007894; stroke-opacity: 0.15"/>
    </defs>
    <g clip-path="url(#p63f74ef3b3)">
     <use xlink:href="#m99dee34bc2" x="0" y="323.532" style="fill: #007894; fill-opacity: 0.15; stroke: #007894; stroke-opacity: 0.15"/>
    </g>
   </g>
   <g id="matplotlib.axis_7">
    <g id="xtick_10">
     <g id="line2d_55">
      <g>
       <use xlink:href="#m67bf07907f" x="707.74424" y="258.624" style="stroke: #000000; stroke-width: 0.8"/>
      </g>
     </g>
     <g id="text_35">
      <!-- 2030 -->
      <g transform="translate(698.84674 271.448219) scale(0.08 -0.08)">
       <use xlink:href="#ArialMT-15"/>
       <use xlink:href="#ArialMT-13" transform="translate(55.609375 0)"/>
       <use xlink:href="#ArialMT-16" transform="translate(111.21875 0)"/>
       <use xlink:href="#ArialMT-13" transform="translate(166.828125 0)"/>
      </g>
     </g>
    </g>
    <g id="xtick_11">
     <g id="line2d_56">
      <g>
       <use xlink:href="#m67bf07907f" x="776.070771" y="258.624" style="stroke: #000000; stroke-width: 0.8"/>
      </g>
     </g>
     <g id="text_36">
      <!-- 2040 -->
      <g transform="translate(767.173271 271.448219) scale(0.08 -0.08)">
       <use xlink:href="#ArialMT-15"/>
       <use xlink:href="#ArialMT-13" transform="translate(55.609375 0)"/>
       <use xlink:href="#ArialMT-17" transform="translate(111.21875 0)"/>
       <use xlink:href="#ArialMT-13" transform="translate(166.828125 0)"/>
      </g>
     </g>
    </g>
    <g id="xtick_12">
     <g id="line2d_57">
      <g>
       <use xlink:href="#m67bf07907f" x="844.397301" y="258.624" style="stroke: #000000; stroke-width: 0.8"/>
      </g>
     </g>
     <g id="text_37">
      <!-- 2050 -->
      <g transform="translate(835.499801 271.448219) scale(0.08 -0.08)">
       <use xlink:href="#ArialMT-15"/>
       <use xlink:href="#ArialMT-13" transform="translate(55.609375 0)"/>
       <use xlink:href="#ArialMT-18" transform="translate(111.21875 0)"/>
       <use xlink:href="#ArialMT-13" transform="translate(166.828125 0)"/>
      </g>
     </g>
    </g>
   </g>
   <g id="matplotlib.axis_8">
    <g id="ytick_22">
     <g id="line2d_58">
      <path d="M 694.078934 238.887456 
L 858.062607 238.887456 
" clip-path="url(#p63f74ef3b3)" style="fill: none; stroke: #b0b0b0; stroke-opacity: 0.3; stroke-width: 0.8; stroke-linecap: square"/>
     </g>
     <g id="line2d_59">
      <g>
       <use xlink:href="#m5c9d43ce54" x="694.078934" y="238.887456" style="stroke: #000000; stroke-width: 0.8"/>
      </g>
     </g>
     <g id="text_38">
      <!-- $\mathdefault{500}$ -->
      <g transform="translate(673.718934 241.799565) scale(0.08 -0.08)">
       <use xlink:href="#ArialMT-18" transform="translate(0 0.125)"/>
       <use xlink:href="#ArialMT-13" transform="translate(55.615234 0.125)"/>
       <use xlink:href="#ArialMT-13" transform="translate(111.230469 0.125)"/>
      </g>
     </g>
    </g>
    <g id="ytick_23">
     <g id="line2d_60">
      <path d="M 694.078934 211.546241 
L 858.062607 211.546241 
" clip-path="url(#p63f74ef3b3)" style="fill: none; stroke: #b0b0b0; stroke-opacity: 0.3; stroke-width: 0.8; stroke-linecap: square"/>
     </g>
     <g id="line2d_61">
      <g>
       <use xlink:href="#m5c9d43ce54" x="694.078934" y="211.546241" style="stroke: #000000; stroke-width: 0.8"/>
      </g>
     </g>
     <g id="text_39">
      <!-- $\mathdefault{1000}$ -->
      <g transform="translate(669.238934 214.45835) scale(0.08 -0.08)">
       <use xlink:href="#ArialMT-14" transform="translate(0 0.125)"/>
       <use xlink:href="#ArialMT-13" transform="translate(55.615234 0.125)"/>
       <use xlink:href="#ArialMT-13" transform="translate(111.230469 0.125)"/>
       <use xlink:href="#ArialMT-13" transform="translate(166.845703 0.125)"/>
      </g>
     </g>
    </g>
    <g id="ytick_24">
     <g id="line2d_62">
      <path d="M 694.078934 184.205026 
L 858.062607 184.205026 
" clip-path="url(#p63f74ef3b3)" style="fill: none; stroke: #b0b0b0; stroke-opacity: 0.3; stroke-width: 0.8; stroke-linecap: square"/>
     </g>
     <g id="line2d_63">
      <g>
       <use xlink:href="#m5c9d43ce54" x="694.078934" y="184.205026" style="stroke: #000000; stroke-width: 0.8"/>
      </g>
     </g>
     <g id="text_40">
      <!-- $\mathdefault{1500}$ -->
      <g transform="translate(669.238934 187.117135) scale(0.08 -0.08)">
       <use xlink:href="#ArialMT-14" transform="translate(0 0.125)"/>
       <use xlink:href="#ArialMT-18" transform="translate(55.615234 0.125)"/>
       <use xlink:href="#ArialMT-13" transform="translate(111.230469 0.125)"/>
       <use xlink:href="#ArialMT-13" transform="translate(166.845703 0.125)"/>
      </g>
     </g>
    </g>
    <g id="ytick_25">
     <g id="line2d_64">
      <path d="M 694.078934 156.863811 
L 858.062607 156.863811 
" clip-path="url(#p63f74ef3b3)" style="fill: none; stroke: #b0b0b0; stroke-opacity: 0.3; stroke-width: 0.8; stroke-linecap: square"/>
     </g>
     <g id="line2d_65">
      <g>
       <use xlink:href="#m5c9d43ce54" x="694.078934" y="156.863811" style="stroke: #000000; stroke-width: 0.8"/>
      </g>
     </g>
     <g id="text_41">
      <!-- $\mathdefault{2000}$ -->
      <g transform="translate(669.238934 159.77592) scale(0.08 -0.08)">
       <use xlink:href="#ArialMT-15" transform="translate(0 0.125)"/>
       <use xlink:href="#ArialMT-13" transform="translate(55.615234 0.125)"/>
       <use xlink:href="#ArialMT-13" transform="translate(111.230469 0.125)"/>
       <use xlink:href="#ArialMT-13" transform="translate(166.845703 0.125)"/>
      </g>
     </g>
    </g>
    <g id="ytick_26">
     <g id="line2d_66">
      <path d="M 694.078934 129.522596 
L 858.062607 129.522596 
" clip-path="url(#p63f74ef3b3)" style="fill: none; stroke: #b0b0b0; stroke-opacity: 0.3; stroke-width: 0.8; stroke-linecap: square"/>
     </g>
     <g id="line2d_67">
      <g>
       <use xlink:href="#m5c9d43ce54" x="694.078934" y="129.522596" style="stroke: #000000; stroke-width: 0.8"/>
      </g>
     </g>
     <g id="text_42">
      <!-- $\mathdefault{2500}$ -->
      <g transform="translate(669.238934 132.434705) scale(0.08 -0.08)">
       <use xlink:href="#ArialMT-15" transform="translate(0 0.125)"/>
       <use xlink:href="#ArialMT-18" transform="translate(55.615234 0.125)"/>
       <use xlink:href="#ArialMT-13" transform="translate(111.230469 0.125)"/>
       <use xlink:href="#ArialMT-13" transform="translate(166.845703 0.125)"/>
      </g>
     </g>
    </g>
    <g id="ytick_27">
     <g id="line2d_68">
      <path d="M 694.078934 102.181381 
L 858.062607 102.181381 
" clip-path="url(#p63f74ef3b3)" style="fill: none; stroke: #b0b0b0; stroke-opacity: 0.3; stroke-width: 0.8; stroke-linecap: square"/>
     </g>
     <g id="line2d_69">
      <g>
       <use xlink:href="#m5c9d43ce54" x="694.078934" y="102.181381" style="stroke: #000000; stroke-width: 0.8"/>
      </g>
     </g>
     <g id="text_43">
      <!-- $\mathdefault{3000}$ -->
      <g transform="translate(669.238934 105.093491) scale(0.08 -0.08)">
       <use xlink:href="#ArialMT-16" transform="translate(0 0.125)"/>
       <use xlink:href="#ArialMT-13" transform="translate(55.615234 0.125)"/>
       <use xlink:href="#ArialMT-13" transform="translate(111.230469 0.125)"/>
       <use xlink:href="#ArialMT-13" transform="translate(166.845703 0.125)"/>
      </g>
     </g>
    </g>
    <g id="ytick_28">
     <g id="line2d_70">
      <path d="M 694.078934 74.840166 
L 858.062607 74.840166 
" clip-path="url(#p63f74ef3b3)" style="fill: none; stroke: #b0b0b0; stroke-opacity: 0.3; stroke-width: 0.8; stroke-linecap: square"/>
     </g>
     <g id="line2d_71">
      <g>
       <use xlink:href="#m5c9d43ce54" x="694.078934" y="74.840166" style="stroke: #000000; stroke-width: 0.8"/>
      </g>
     </g>
     <g id="text_44">
      <!-- $\mathdefault{3500}$ -->
      <g transform="translate(669.238934 77.752276) scale(0.08 -0.08)">
       <use xlink:href="#ArialMT-16" transform="translate(0 0.125)"/>
       <use xlink:href="#ArialMT-18" transform="translate(55.615234 0.125)"/>
       <use xlink:href="#ArialMT-13" transform="translate(111.230469 0.125)"/>
       <use xlink:href="#ArialMT-13" transform="translate(166.845703 0.125)"/>
      </g>
     </g>
    </g>
   </g>
   <g id="FillBetweenPolyCollection_11">
    <defs>
     <path id="mdd1def1306" d="M 707.74424 -112.722314 
L 707.74424 -106.272598 
L 776.070771 -138.571578 
L 844.397301 -170.997354 
L 844.397301 -177.604675 
L 844.397301 -177.604675 
L 776.070771 -147.015915 
L 707.74424 -112.722314 
z
" style="stroke: #007894; stroke-opacity: 0.3"/>
    </defs>
    <g clip-path="url(#p63f74ef3b3)">
     <use xlink:href="#mdd1def1306" x="0" y="323.532" style="fill: #007894; fill-opacity: 0.3; stroke: #007894; stroke-opacity: 0.3"/>
    </g>
   </g>
   <g id="patch_18">
    <path d="M 694.078934 258.624 
L 694.078934 59.04 
" style="fill: none; stroke: #000000; stroke-width: 0.8; stroke-linejoin: miter; stroke-linecap: square"/>
   </g>
   <g id="patch_19">
    <path d="M 858.062607 258.624 
L 858.062607 59.04 
" style="fill: none; stroke: #000000; stroke-width: 0.8; stroke-linejoin: miter; stroke-linecap: square"/>
   </g>
   <g id="patch_20">
    <path d="M 694.078934 258.624 
L 858.062607 258.624 
" style="fill: none; stroke: #000000; stroke-width: 0.8; stroke-linejoin: miter; stroke-linecap: square"/>
   </g>
   <g id="patch_21">
    <path d="M 694.078934 59.04 
L 858.062607 59.04 
" style="fill: none; stroke: #000000; stroke-width: 0.8; stroke-linejoin: miter; stroke-linecap: square"/>
   </g>
   <g id="FillBetweenPolyCollection_12">
    <defs>
     <path id="m2f4c9a86a1" d="M 707.74424 -109.230176 
L 707.74424 -108.098401 
L 776.070771 -140.273352 
L 844.397301 -170.997354 
L 844.397301 -172.136432 
L 844.397301 -172.136432 
L 776.070771 -141.767222 
L 707.74424 -109.230176 
z
" style="stroke: #007894; stroke-opacity: 0.85"/>
    </defs>
    <g clip-path="url(#p63f74ef3b3)">
     <use xlink:href="#m2f4c9a86a1" x="0" y="323.532" style="fill: #007894; fill-opacity: 0.85; stroke: #007894; stroke-opacity: 0.85"/>
    </g>
   </g>
   <g id="text_45">
    <!-- West -->
    <g transform="translate(763.030614 53.04) scale(0.11 -0.11)">
     <defs>
      <path id="Arial-BoldMT-3a" d="M 1116 0 
L 22 4581 
L 969 4581 
L 1659 1434 
L 2497 4581 
L 3597 4581 
L 4400 1381 
L 5103 4581 
L 6034 4581 
L 4922 0 
L 3941 0 
L 3028 3425 
L 2119 0 
L 1116 0 
z
" transform="scale(0.015625)"/>
      <path id="Arial-BoldMT-48" d="M 2381 1056 
L 3256 909 
Q 3088 428 2723 176 
Q 2359 -75 1813 -75 
Q 947 -75 531 491 
Q 203 944 203 1634 
Q 203 2459 634 2926 
Q 1066 3394 1725 3394 
Q 2466 3394 2894 2905 
Q 3322 2416 3303 1406 
L 1103 1406 
Q 1113 1016 1316 798 
Q 1519 581 1822 581 
Q 2028 581 2168 693 
Q 2309 806 2381 1056 
z
M 2431 1944 
Q 2422 2325 2234 2523 
Q 2047 2722 1778 2722 
Q 1491 2722 1303 2513 
Q 1116 2303 1119 1944 
L 2431 1944 
z
" transform="scale(0.015625)"/>
     </defs>
     <use xlink:href="#Arial-BoldMT-3a"/>
     <use xlink:href="#Arial-BoldMT-48" transform="translate(92.578125 0)"/>
     <use xlink:href="#Arial-BoldMT-56" transform="translate(148.1875 0)"/>
     <use xlink:href="#Arial-BoldMT-57" transform="translate(203.796875 0)"/>
    </g>
   </g>
   <g id="line2d_72">
    <defs>
     <path id="m70ff748c06" d="M -0 5 
L 5 -5 
L -5 -5 
z
" style="stroke: #007894; stroke-opacity: 0.45; stroke-linejoin: miter"/>
    </defs>
    <g clip-path="url(#p63f74ef3b3)">
     <use xlink:href="#m70ff748c06" x="844.397301" y="145.927325" style="fill: #007894; fill-opacity: 0.45; stroke: #007894; stroke-opacity: 0.45; stroke-linejoin: miter"/>
    </g>
   </g>
   <g id="line2d_73">
    <defs>
     <path id="m1facb1fbde" d="M -0 5 
L 5 -5 
L -5 -5 
z
" style="stroke: #007894; stroke-linejoin: miter"/>
    </defs>
    <g clip-path="url(#p63f74ef3b3)">
     <use xlink:href="#m1facb1fbde" x="844.397301" y="151.395568" style="fill: #007894; stroke: #007894; stroke-linejoin: miter"/>
    </g>
   </g>
   <g id="line2d_74">
    <path d="M 707.74424 212.297959 
L 776.070771 173.175976 
L 844.397301 132.120879 
" clip-path="url(#p63f74ef3b3)" style="fill: none; stroke-dasharray: 3.7,1.6; stroke-dashoffset: 0; stroke: #000000; stroke-opacity: 0.8"/>
    <g clip-path="url(#p63f74ef3b3)">
     <use xlink:href="#ma67cecc72f" x="707.74424" y="212.297959" style="fill-opacity: 0.8; stroke: #000000; stroke-opacity: 0.8; stroke-linejoin: bevel"/>
     <use xlink:href="#ma67cecc72f" x="776.070771" y="173.175976" style="fill-opacity: 0.8; stroke: #000000; stroke-opacity: 0.8; stroke-linejoin: bevel"/>
     <use xlink:href="#ma67cecc72f" x="844.397301" y="132.120879" style="fill-opacity: 0.8; stroke: #000000; stroke-opacity: 0.8; stroke-linejoin: bevel"/>
    </g>
   </g>
  </g>
  <g id="text_46">
   <!-- West Constrained: Absolute Investment Cap at 2050 -->
   <g transform="translate(288.803545 17.237231) scale(0.125 -0.125)">
    <defs>
     <path id="Arial-BoldMT-3" transform="scale(0.015625)"/>
     <path id="Arial-BoldMT-26" d="M 3397 1684 
L 4294 1400 
Q 4088 650 3608 286 
Q 3128 -78 2391 -78 
Q 1478 -78 890 545 
Q 303 1169 303 2250 
Q 303 3394 893 4026 
Q 1484 4659 2447 4659 
Q 3288 4659 3813 4163 
Q 4125 3869 4281 3319 
L 3366 3100 
Q 3284 3456 3026 3662 
Q 2769 3869 2400 3869 
Q 1891 3869 1573 3503 
Q 1256 3138 1256 2319 
Q 1256 1450 1568 1081 
Q 1881 713 2381 713 
Q 2750 713 3015 947 
Q 3281 1181 3397 1684 
z
" transform="scale(0.015625)"/>
     <path id="Arial-BoldMT-51" d="M 3478 0 
L 2600 0 
L 2600 1694 
Q 2600 2231 2544 2389 
Q 2488 2547 2361 2634 
Q 2234 2722 2056 2722 
Q 1828 2722 1647 2597 
Q 1466 2472 1398 2265 
Q 1331 2059 1331 1503 
L 1331 0 
L 453 0 
L 453 3319 
L 1269 3319 
L 1269 2831 
Q 1703 3394 2363 3394 
Q 2653 3394 2893 3289 
Q 3134 3184 3257 3021 
Q 3381 2859 3429 2653 
Q 3478 2447 3478 2063 
L 3478 0 
z
" transform="scale(0.015625)"/>
     <path id="Arial-BoldMT-4c" d="M 459 3769 
L 459 4581 
L 1338 4581 
L 1338 3769 
L 459 3769 
z
M 459 0 
L 459 3319 
L 1338 3319 
L 1338 0 
L 459 0 
z
" transform="scale(0.015625)"/>
     <path id="Arial-BoldMT-47" d="M 3503 0 
L 2688 0 
L 2688 488 
Q 2484 203 2207 64 
Q 1931 -75 1650 -75 
Q 1078 -75 670 386 
Q 263 847 263 1672 
Q 263 2516 659 2955 
Q 1056 3394 1663 3394 
Q 2219 3394 2625 2931 
L 2625 4581 
L 3503 4581 
L 3503 0 
z
M 1159 1731 
Q 1159 1200 1306 963 
Q 1519 619 1900 619 
Q 2203 619 2415 876 
Q 2628 1134 2628 1647 
Q 2628 2219 2422 2470 
Q 2216 2722 1894 2722 
Q 1581 2722 1370 2473 
Q 1159 2225 1159 1731 
z
" transform="scale(0.015625)"/>
     <path id="Arial-BoldMT-1d" d="M 628 2441 
L 628 3319 
L 1506 3319 
L 1506 2441 
L 628 2441 
z
M 628 0 
L 628 878 
L 1506 878 
L 1506 0 
L 628 0 
z
" transform="scale(0.015625)"/>
     <path id="Arial-BoldMT-24" d="M 4597 0 
L 3591 0 
L 3191 1041 
L 1359 1041 
L 981 0 
L 0 0 
L 1784 4581 
L 2763 4581 
L 4597 0 
z
M 2894 1813 
L 2263 3513 
L 1644 1813 
L 2894 1813 
z
" transform="scale(0.015625)"/>
     <path id="Arial-BoldMT-45" d="M 422 0 
L 422 4581 
L 1300 4581 
L 1300 2931 
Q 1706 3394 2263 3394 
Q 2869 3394 3266 2955 
Q 3663 2516 3663 1694 
Q 3663 844 3258 384 
Q 2853 -75 2275 -75 
Q 1991 -75 1714 67 
Q 1438 209 1238 488 
L 1238 0 
L 422 0 
z
M 1294 1731 
Q 1294 1216 1456 969 
Q 1684 619 2063 619 
Q 2353 619 2558 867 
Q 2763 1116 2763 1650 
Q 2763 2219 2556 2470 
Q 2350 2722 2028 2722 
Q 1713 2722 1503 2476 
Q 1294 2231 1294 1731 
z
" transform="scale(0.015625)"/>
     <path id="Arial-BoldMT-4f" d="M 459 0 
L 459 4581 
L 1338 4581 
L 1338 0 
L 459 0 
z
" transform="scale(0.015625)"/>
     <path id="Arial-BoldMT-2c" d="M 438 0 
L 438 4581 
L 1363 4581 
L 1363 0 
L 438 0 
z
" transform="scale(0.015625)"/>
     <path id="Arial-BoldMT-59" d="M 1372 0 
L 34 3319 
L 956 3319 
L 1581 1625 
L 1763 1059 
Q 1834 1275 1853 1344 
Q 1897 1484 1947 1625 
L 2578 3319 
L 3481 3319 
L 2163 0 
L 1372 0 
z
" transform="scale(0.015625)"/>
     <path id="Arial-BoldMT-50" d="M 394 3319 
L 1203 3319 
L 1203 2866 
Q 1638 3394 2238 3394 
Q 2556 3394 2790 3262 
Q 3025 3131 3175 2866 
Q 3394 3131 3647 3262 
Q 3900 3394 4188 3394 
Q 4553 3394 4806 3245 
Q 5059 3097 5184 2809 
Q 5275 2597 5275 2122 
L 5275 0 
L 4397 0 
L 4397 1897 
Q 4397 2391 4306 2534 
Q 4184 2722 3931 2722 
Q 3747 2722 3584 2609 
Q 3422 2497 3350 2280 
Q 3278 2063 3278 1594 
L 3278 0 
L 2400 0 
L 2400 1819 
Q 2400 2303 2353 2443 
Q 2306 2584 2207 2653 
Q 2109 2722 1941 2722 
Q 1738 2722 1575 2612 
Q 1413 2503 1342 2297 
Q 1272 2091 1272 1613 
L 1272 0 
L 394 0 
L 394 3319 
z
" transform="scale(0.015625)"/>
     <path id="Arial-BoldMT-53" d="M 434 3319 
L 1253 3319 
L 1253 2831 
Q 1413 3081 1684 3237 
Q 1956 3394 2288 3394 
Q 2866 3394 3269 2941 
Q 3672 2488 3672 1678 
Q 3672 847 3265 386 
Q 2859 -75 2281 -75 
Q 2006 -75 1782 34 
Q 1559 144 1313 409 
L 1313 -1263 
L 434 -1263 
L 434 3319 
z
M 1303 1716 
Q 1303 1156 1525 889 
Q 1747 622 2066 622 
Q 2372 622 2575 867 
Q 2778 1113 2778 1672 
Q 2778 2194 2568 2447 
Q 2359 2700 2050 2700 
Q 1728 2700 1515 2451 
Q 1303 2203 1303 1716 
z
" transform="scale(0.015625)"/>
     <path id="Arial-BoldMT-15" d="M 3238 816 
L 3238 0 
L 159 0 
Q 209 463 459 877 
Q 709 1291 1447 1975 
Q 2041 2528 2175 2725 
Q 2356 2997 2356 3263 
Q 2356 3556 2198 3714 
Q 2041 3872 1763 3872 
Q 1488 3872 1325 3706 
Q 1163 3541 1138 3156 
L 263 3244 
Q 341 3969 753 4284 
Q 1166 4600 1784 4600 
Q 2463 4600 2850 4234 
Q 3238 3869 3238 3325 
Q 3238 3016 3127 2736 
Q 3016 2456 2775 2150 
Q 2616 1947 2200 1565 
Q 1784 1184 1673 1059 
Q 1563 934 1494 816 
L 3238 816 
z
" transform="scale(0.015625)"/>
     <path id="Arial-BoldMT-13" d="M 1756 4600 
Q 2422 4600 2797 4125 
Q 3244 3563 3244 2259 
Q 3244 959 2794 391 
Q 2422 -78 1756 -78 
Q 1088 -78 678 436 
Q 269 950 269 2269 
Q 269 3563 719 4131 
Q 1091 4600 1756 4600 
z
M 1756 3872 
Q 1597 3872 1472 3770 
Q 1347 3669 1278 3406 
Q 1188 3066 1188 2259 
Q 1188 1453 1269 1151 
Q 1350 850 1473 750 
Q 1597 650 1756 650 
Q 1916 650 2041 751 
Q 2166 853 2234 1116 
Q 2325 1453 2325 2259 
Q 2325 3066 2244 3367 
Q 2163 3669 2039 3770 
Q 1916 3872 1756 3872 
z
" transform="scale(0.015625)"/>
     <path id="Arial-BoldMT-18" d="M 284 1178 
L 1159 1269 
Q 1197 972 1381 798 
Q 1566 625 1806 625 
Q 2081 625 2272 848 
Q 2463 1072 2463 1522 
Q 2463 1944 2273 2155 
Q 2084 2366 1781 2366 
Q 1403 2366 1103 2031 
L 391 2134 
L 841 4519 
L 3163 4519 
L 3163 3697 
L 1506 3697 
L 1369 2919 
Q 1663 3066 1969 3066 
Q 2553 3066 2959 2641 
Q 3366 2216 3366 1538 
Q 3366 972 3038 528 
Q 2591 -78 1797 -78 
Q 1163 -78 763 262 
Q 363 603 284 1178 
z
" transform="scale(0.015625)"/>
    </defs>
    <use xlink:href="#Arial-BoldMT-3a"/>
    <use xlink:href="#Arial-BoldMT-48" transform="translate(92.578125 0)"/>
    <use xlink:href="#Arial-BoldMT-56" transform="translate(148.1875 0)"/>
    <use xlink:href="#Arial-BoldMT-57" transform="translate(203.796875 0)"/>
    <use xlink:href="#Arial-BoldMT-3" transform="translate(237.09375 0)"/>
    <use xlink:href="#Arial-BoldMT-26" transform="translate(264.875 0)"/>
    <use xlink:href="#Arial-BoldMT-52" transform="translate(337.09375 0)"/>
    <use xlink:href="#Arial-BoldMT-51" transform="translate(398.171875 0)"/>
    <use xlink:href="#Arial-BoldMT-56" transform="translate(459.25 0)"/>
    <use xlink:href="#Arial-BoldMT-57" transform="translate(514.859375 0)"/>
    <use xlink:href="#Arial-BoldMT-55" transform="translate(548.15625 0)"/>
    <use xlink:href="#Arial-BoldMT-44" transform="translate(587.078125 0)"/>
    <use xlink:href="#Arial-BoldMT-4c" transform="translate(642.6875 0)"/>
    <use xlink:href="#Arial-BoldMT-51" transform="translate(670.46875 0)"/>
    <use xlink:href="#Arial-BoldMT-48" transform="translate(731.546875 0)"/>
    <use xlink:href="#Arial-BoldMT-47" transform="translate(787.15625 0)"/>
    <use xlink:href="#Arial-BoldMT-1d" transform="translate(848.234375 0)"/>
    <use xlink:href="#Arial-BoldMT-3" transform="translate(881.53125 0)"/>
    <use xlink:href="#Arial-BoldMT-24" transform="translate(905.609375 0)"/>
    <use xlink:href="#Arial-BoldMT-45" transform="translate(977.828125 0)"/>
    <use xlink:href="#Arial-BoldMT-56" transform="translate(1038.90625 0)"/>
    <use xlink:href="#Arial-BoldMT-52" transform="translate(1094.515625 0)"/>
    <use xlink:href="#Arial-BoldMT-4f" transform="translate(1155.59375 0)"/>
    <use xlink:href="#Arial-BoldMT-58" transform="translate(1183.375 0)"/>
    <use xlink:href="#Arial-BoldMT-57" transform="translate(1244.453125 0)"/>
    <use xlink:href="#Arial-BoldMT-48" transform="translate(1277.75 0)"/>
    <use xlink:href="#Arial-BoldMT-3" transform="translate(1333.359375 0)"/>
    <use xlink:href="#Arial-BoldMT-2c" transform="translate(1361.140625 0)"/>
    <use xlink:href="#Arial-BoldMT-51" transform="translate(1388.921875 0)"/>
    <use xlink:href="#Arial-BoldMT-59" transform="translate(1450 0)"/>
    <use xlink:href="#Arial-BoldMT-48" transform="translate(1505.609375 0)"/>
    <use xlink:href="#Arial-BoldMT-56" transform="translate(1561.21875 0)"/>
    <use xlink:href="#Arial-BoldMT-57" transform="translate(1616.828125 0)"/>
    <use xlink:href="#Arial-BoldMT-50" transform="translate(1650.125 0)"/>
    <use xlink:href="#Arial-BoldMT-48" transform="translate(1739.046875 0)"/>
    <use xlink:href="#Arial-BoldMT-51" transform="translate(1794.65625 0)"/>
    <use xlink:href="#Arial-BoldMT-57" transform="translate(1855.734375 0)"/>
    <use xlink:href="#Arial-BoldMT-3" transform="translate(1889.03125 0)"/>
    <use xlink:href="#Arial-BoldMT-26" transform="translate(1916.8125 0)"/>
    <use xlink:href="#Arial-BoldMT-44" transform="translate(1989.03125 0)"/>
    <use xlink:href="#Arial-BoldMT-53" transform="translate(2044.640625 0)"/>
    <use xlink:href="#Arial-BoldMT-3" transform="translate(2105.71875 0)"/>
    <use xlink:href="#Arial-BoldMT-44" transform="translate(2133.5 0)"/>
    <use xlink:href="#Arial-BoldMT-57" transform="translate(2189.109375 0)"/>
    <use xlink:href="#Arial-BoldMT-3" transform="translate(2222.40625 0)"/>
    <use xlink:href="#Arial-BoldMT-15" transform="translate(2250.1875 0)"/>
    <use xlink:href="#Arial-BoldMT-13" transform="translate(2305.796875 0)"/>
    <use xlink:href="#Arial-BoldMT-18" transform="translate(2361.40625 0)"/>
    <use xlink:href="#Arial-BoldMT-13" transform="translate(2417.015625 0)"/>
   </g>
   <!-- (West's cumulative-until-2050 investment capped at 2200, 2100 bn EUR; effect on all 4 regions) -->
   <g transform="translate(162.743975 30.841968) scale(0.125 -0.125)">
    <defs>
     <path id="Arial-BoldMT-b" d="M 1916 -1347 
L 1313 -1347 
Q 834 -625 584 153 
Q 334 931 334 1659 
Q 334 2563 644 3369 
Q 913 4069 1325 4659 
L 1925 4659 
Q 1497 3713 1336 3048 
Q 1175 2384 1175 1641 
Q 1175 1128 1270 590 
Q 1366 53 1531 -431 
Q 1641 -750 1916 -1347 
z
" transform="scale(0.015625)"/>
     <path id="Arial-BoldMT-a" d="M 453 2953 
L 288 3806 
L 288 4581 
L 1244 4581 
L 1244 3806 
L 1100 2953 
L 453 2953 
z
" transform="scale(0.015625)"/>
     <path id="Arial-BoldMT-46" d="M 3353 2338 
L 2488 2181 
Q 2444 2441 2289 2572 
Q 2134 2703 1888 2703 
Q 1559 2703 1364 2476 
Q 1169 2250 1169 1719 
Q 1169 1128 1367 884 
Q 1566 641 1900 641 
Q 2150 641 2309 783 
Q 2469 925 2534 1272 
L 3397 1125 
Q 3263 531 2881 228 
Q 2500 -75 1859 -75 
Q 1131 -75 698 384 
Q 266 844 266 1656 
Q 266 2478 700 2936 
Q 1134 3394 1875 3394 
Q 2481 3394 2839 3133 
Q 3197 2872 3353 2338 
z
" transform="scale(0.015625)"/>
     <path id="Arial-BoldMT-10" d="M 359 1222 
L 359 2100 
L 2084 2100 
L 2084 1222 
L 359 1222 
z
" transform="scale(0.015625)"/>
     <path id="Arial-BoldMT-f" d="M 438 878 
L 1316 878 
L 1316 250 
Q 1316 -131 1250 -351 
Q 1184 -572 1001 -747 
Q 819 -922 538 -1022 
L 366 -659 
Q 631 -572 743 -419 
Q 856 -266 863 0 
L 438 0 
L 438 878 
z
" transform="scale(0.015625)"/>
     <path id="Arial-BoldMT-14" d="M 2519 0 
L 1641 0 
L 1641 3309 
Q 1159 2859 506 2644 
L 506 3441 
Q 850 3553 1253 3867 
Q 1656 4181 1806 4600 
L 2519 4600 
L 2519 0 
z
" transform="scale(0.015625)"/>
     <path id="Arial-BoldMT-38" d="M 459 4581 
L 1384 4581 
L 1384 2100 
Q 1384 1509 1419 1334 
Q 1478 1053 1701 883 
Q 1925 713 2313 713 
Q 2706 713 2906 873 
Q 3106 1034 3147 1268 
Q 3188 1503 3188 2047 
L 3188 4581 
L 4113 4581 
L 4113 2175 
Q 4113 1350 4038 1009 
Q 3963 669 3761 434 
Q 3559 200 3221 61 
Q 2884 -78 2341 -78 
Q 1684 -78 1345 73 
Q 1006 225 809 467 
Q 613 709 550 975 
Q 459 1369 459 2138 
L 459 4581 
z
" transform="scale(0.015625)"/>
     <path id="Arial-BoldMT-35" d="M 469 0 
L 469 4581 
L 2416 4581 
Q 3150 4581 3483 4457 
Q 3816 4334 4016 4018 
Q 4216 3703 4216 3297 
Q 4216 2781 3912 2445 
Q 3609 2109 3006 2022 
Q 3306 1847 3501 1637 
Q 3697 1428 4028 894 
L 4588 0 
L 3481 0 
L 2813 997 
Q 2456 1531 2325 1670 
Q 2194 1809 2047 1861 
Q 1900 1913 1581 1913 
L 1394 1913 
L 1394 0 
L 469 0 
z
M 1394 2644 
L 2078 2644 
Q 2744 2644 2909 2700 
Q 3075 2756 3169 2893 
Q 3263 3031 3263 3238 
Q 3263 3469 3139 3611 
Q 3016 3753 2791 3791 
Q 2678 3806 2116 3806 
L 1394 3806 
L 1394 2644 
z
" transform="scale(0.015625)"/>
     <path id="Arial-BoldMT-1e" d="M 603 2441 
L 603 3319 
L 1481 3319 
L 1481 2441 
L 603 2441 
z
M 603 878 
L 1481 878 
L 1481 250 
Q 1481 -131 1415 -351 
Q 1350 -572 1167 -747 
Q 984 -922 703 -1022 
L 531 -659 
Q 797 -572 909 -415 
Q 1022 -259 1028 0 
L 603 0 
L 603 878 
z
" transform="scale(0.015625)"/>
     <path id="Arial-BoldMT-49" d="M 75 3319 
L 563 3319 
L 563 3569 
Q 563 3988 652 4194 
Q 741 4400 980 4529 
Q 1219 4659 1584 4659 
Q 1959 4659 2319 4547 
L 2200 3934 
Q 1991 3984 1797 3984 
Q 1606 3984 1523 3895 
Q 1441 3806 1441 3553 
L 1441 3319 
L 2097 3319 
L 2097 2628 
L 1441 2628 
L 1441 0 
L 563 0 
L 563 2628 
L 75 2628 
L 75 3319 
z
" transform="scale(0.015625)"/>
     <path id="Arial-BoldMT-17" d="M 1994 0 
L 1994 922 
L 119 922 
L 119 1691 
L 2106 4600 
L 2844 4600 
L 2844 1694 
L 3413 1694 
L 3413 922 
L 2844 922 
L 2844 0 
L 1994 0 
z
M 1994 1694 
L 1994 3259 
L 941 1694 
L 1994 1694 
z
" transform="scale(0.015625)"/>
     <path id="Arial-BoldMT-4a" d="M 378 -219 
L 1381 -341 
Q 1406 -516 1497 -581 
Q 1622 -675 1891 -675 
Q 2234 -675 2406 -572 
Q 2522 -503 2581 -350 
Q 2622 -241 2622 53 
L 2622 538 
Q 2228 0 1628 0 
Q 959 0 569 566 
Q 263 1013 263 1678 
Q 263 2513 664 2953 
Q 1066 3394 1663 3394 
Q 2278 3394 2678 2853 
L 2678 3319 
L 3500 3319 
L 3500 341 
Q 3500 -247 3403 -537 
Q 3306 -828 3131 -993 
Q 2956 -1159 2664 -1253 
Q 2372 -1347 1925 -1347 
Q 1081 -1347 728 -1058 
Q 375 -769 375 -325 
Q 375 -281 378 -219 
z
M 1163 1728 
Q 1163 1200 1367 954 
Q 1572 709 1872 709 
Q 2194 709 2416 961 
Q 2638 1213 2638 1706 
Q 2638 2222 2425 2472 
Q 2213 2722 1888 2722 
Q 1572 2722 1367 2476 
Q 1163 2231 1163 1728 
z
" transform="scale(0.015625)"/>
     <path id="Arial-BoldMT-c" d="M 216 -1347 
Q 475 -791 581 -494 
Q 688 -197 778 190 
Q 869 578 912 926 
Q 956 1275 956 1641 
Q 956 2384 797 3048 
Q 638 3713 209 4659 
L 806 4659 
Q 1278 3988 1539 3234 
Q 1800 2481 1800 1706 
Q 1800 1053 1594 306 
Q 1359 -531 822 -1347 
L 216 -1347 
z
" transform="scale(0.015625)"/>
    </defs>
    <use xlink:href="#Arial-BoldMT-b"/>
    <use xlink:href="#Arial-BoldMT-3a" transform="translate(33.296875 0)"/>
    <use xlink:href="#Arial-BoldMT-48" transform="translate(125.875 0)"/>
    <use xlink:href="#Arial-BoldMT-56" transform="translate(181.484375 0)"/>
    <use xlink:href="#Arial-BoldMT-57" transform="translate(237.09375 0)"/>
    <use xlink:href="#Arial-BoldMT-a" transform="translate(270.390625 0)"/>
    <use xlink:href="#Arial-BoldMT-56" transform="translate(294.171875 0)"/>
    <use xlink:href="#Arial-BoldMT-3" transform="translate(349.78125 0)"/>
    <use xlink:href="#Arial-BoldMT-46" transform="translate(377.5625 0)"/>
    <use xlink:href="#Arial-BoldMT-58" transform="translate(433.171875 0)"/>
    <use xlink:href="#Arial-BoldMT-50" transform="translate(494.25 0)"/>
    <use xlink:href="#Arial-BoldMT-58" transform="translate(583.171875 0)"/>
    <use xlink:href="#Arial-BoldMT-4f" transform="translate(644.25 0)"/>
    <use xlink:href="#Arial-BoldMT-44" transform="translate(672.03125 0)"/>
    <use xlink:href="#Arial-BoldMT-57" transform="translate(727.640625 0)"/>
    <use xlink:href="#Arial-BoldMT-4c" transform="translate(760.9375 0)"/>
    <use xlink:href="#Arial-BoldMT-59" transform="translate(788.71875 0)"/>
    <use xlink:href="#Arial-BoldMT-48" transform="translate(844.328125 0)"/>
    <use xlink:href="#Arial-BoldMT-10" transform="translate(899.9375 0)"/>
    <use xlink:href="#Arial-BoldMT-58" transform="translate(933.234375 0)"/>
    <use xlink:href="#Arial-BoldMT-51" transform="translate(994.3125 0)"/>
    <use xlink:href="#Arial-BoldMT-57" transform="translate(1055.390625 0)"/>
    <use xlink:href="#Arial-BoldMT-4c" transform="translate(1088.6875 0)"/>
    <use xlink:href="#Arial-BoldMT-4f" transform="translate(1116.46875 0)"/>
    <use xlink:href="#Arial-BoldMT-10" transform="translate(1144.25 0)"/>
    <use xlink:href="#Arial-BoldMT-15" transform="translate(1177.546875 0)"/>
    <use xlink:href="#Arial-BoldMT-13" transform="translate(1233.15625 0)"/>
    <use xlink:href="#Arial-BoldMT-18" transform="translate(1288.765625 0)"/>
    <use xlink:href="#Arial-BoldMT-13" transform="translate(1344.375 0)"/>
    <use xlink:href="#Arial-BoldMT-3" transform="translate(1399.984375 0)"/>
    <use xlink:href="#Arial-BoldMT-4c" transform="translate(1427.765625 0)"/>
    <use xlink:href="#Arial-BoldMT-51" transform="translate(1455.546875 0)"/>
    <use xlink:href="#Arial-BoldMT-59" transform="translate(1516.625 0)"/>
    <use xlink:href="#Arial-BoldMT-48" transform="translate(1572.234375 0)"/>
    <use xlink:href="#Arial-BoldMT-56" transform="translate(1627.84375 0)"/>
    <use xlink:href="#Arial-BoldMT-57" transform="translate(1683.453125 0)"/>
    <use xlink:href="#Arial-BoldMT-50" transform="translate(1716.75 0)"/>
    <use xlink:href="#Arial-BoldMT-48" transform="translate(1805.671875 0)"/>
    <use xlink:href="#Arial-BoldMT-51" transform="translate(1861.28125 0)"/>
    <use xlink:href="#Arial-BoldMT-57" transform="translate(1922.359375 0)"/>
    <use xlink:href="#Arial-BoldMT-3" transform="translate(1955.65625 0)"/>
    <use xlink:href="#Arial-BoldMT-46" transform="translate(1983.4375 0)"/>
    <use xlink:href="#Arial-BoldMT-44" transform="translate(2039.046875 0)"/>
    <use xlink:href="#Arial-BoldMT-53" transform="translate(2094.65625 0)"/>
    <use xlink:href="#Arial-BoldMT-53" transform="translate(2155.734375 0)"/>
    <use xlink:href="#Arial-BoldMT-48" transform="translate(2216.8125 0)"/>
    <use xlink:href="#Arial-BoldMT-47" transform="translate(2272.421875 0)"/>
    <use xlink:href="#Arial-BoldMT-3" transform="translate(2333.5 0)"/>
    <use xlink:href="#Arial-BoldMT-44" transform="translate(2361.28125 0)"/>
    <use xlink:href="#Arial-BoldMT-57" transform="translate(2416.890625 0)"/>
    <use xlink:href="#Arial-BoldMT-3" transform="translate(2450.1875 0)"/>
    <use xlink:href="#Arial-BoldMT-15" transform="translate(2477.96875 0)"/>
    <use xlink:href="#Arial-BoldMT-15" transform="translate(2533.578125 0)"/>
    <use xlink:href="#Arial-BoldMT-13" transform="translate(2589.1875 0)"/>
    <use xlink:href="#Arial-BoldMT-13" transform="translate(2644.796875 0)"/>
    <use xlink:href="#Arial-BoldMT-f" transform="translate(2700.40625 0)"/>
    <use xlink:href="#Arial-BoldMT-3" transform="translate(2728.1875 0)"/>
    <use xlink:href="#Arial-BoldMT-15" transform="translate(2755.96875 0)"/>
    <use xlink:href="#Arial-BoldMT-14" transform="translate(2811.578125 0)"/>
    <use xlink:href="#Arial-BoldMT-13" transform="translate(2867.1875 0)"/>
    <use xlink:href="#Arial-BoldMT-13" transform="translate(2922.796875 0)"/>
    <use xlink:href="#Arial-BoldMT-3" transform="translate(2978.40625 0)"/>
    <use xlink:href="#Arial-BoldMT-45" transform="translate(3006.1875 0)"/>
    <use xlink:href="#Arial-BoldMT-51" transform="translate(3067.265625 0)"/>
    <use xlink:href="#Arial-BoldMT-3" transform="translate(3128.34375 0)"/>
    <use xlink:href="#Arial-BoldMT-28" transform="translate(3156.125 0)"/>
    <use xlink:href="#Arial-BoldMT-38" transform="translate(3222.828125 0)"/>
    <use xlink:href="#Arial-BoldMT-35" transform="translate(3295.046875 0)"/>
    <use xlink:href="#Arial-BoldMT-1e" transform="translate(3367.265625 0)"/>
    <use xlink:href="#Arial-BoldMT-3" transform="translate(3400.5625 0)"/>
    <use xlink:href="#Arial-BoldMT-48" transform="translate(3428.34375 0)"/>
    <use xlink:href="#Arial-BoldMT-49" transform="translate(3483.953125 0)"/>
    <use xlink:href="#Arial-BoldMT-49" transform="translate(3517.25 0)"/>
    <use xlink:href="#Arial-BoldMT-48" transform="translate(3550.546875 0)"/>
    <use xlink:href="#Arial-BoldMT-46" transform="translate(3606.15625 0)"/>
    <use xlink:href="#Arial-BoldMT-57" transform="translate(3661.765625 0)"/>
    <use xlink:href="#Arial-BoldMT-3" transform="translate(3695.0625 0)"/>
    <use xlink:href="#Arial-BoldMT-52" transform="translate(3722.84375 0)"/>
    <use xlink:href="#Arial-BoldMT-51" transform="translate(3783.921875 0)"/>
    <use xlink:href="#Arial-BoldMT-3" transform="translate(3845 0)"/>
    <use xlink:href="#Arial-BoldMT-44" transform="translate(3872.78125 0)"/>
    <use xlink:href="#Arial-BoldMT-4f" transform="translate(3928.390625 0)"/>
    <use xlink:href="#Arial-BoldMT-4f" transform="translate(3956.171875 0)"/>
    <use xlink:href="#Arial-BoldMT-3" transform="translate(3983.953125 0)"/>
    <use xlink:href="#Arial-BoldMT-17" transform="translate(4011.734375 0)"/>
    <use xlink:href="#Arial-BoldMT-3" transform="translate(4067.34375 0)"/>
    <use xlink:href="#Arial-BoldMT-55" transform="translate(4095.125 0)"/>
    <use xlink:href="#Arial-BoldMT-48" transform="translate(4134.046875 0)"/>
    <use xlink:href="#Arial-BoldMT-4a" transform="translate(4189.65625 0)"/>
    <use xlink:href="#Arial-BoldMT-4c" transform="translate(4250.734375 0)"/>
    <use xlink:href="#Arial-BoldMT-52" transform="translate(4278.515625 0)"/>
    <use xlink:href="#Arial-BoldMT-51" transform="translate(4339.59375 0)"/>
    <use xlink:href="#Arial-BoldMT-56" transform="translate(4400.671875 0)"/>
    <use xlink:href="#Arial-BoldMT-c" transform="translate(4456.28125 0)"/>
   </g>
  </g>
  <g id="legend_1">
   <g id="patch_22">
    <path d="M 327.484482 284.944852 
L 345.484482 284.944852 
L 345.484482 278.644852 
L 327.484482 278.644852 
z
" style="fill: #999999; opacity: 0.15"/>
   </g>
   <g id="text_47">
    <!-- baseline range -->
    <g transform="translate(352.684482 284.944852) scale(0.09 -0.09)">
     <defs>
      <path id="ArialMT-4f" d="M 409 0 
L 409 4581 
L 972 4581 
L 972 0 
L 409 0 
z
" transform="scale(0.015625)"/>
      <path id="ArialMT-4a" d="M 319 -275 
L 866 -356 
Q 900 -609 1056 -725 
Q 1266 -881 1628 -881 
Q 2019 -881 2231 -725 
Q 2444 -569 2519 -288 
Q 2563 -116 2559 434 
Q 2191 0 1641 0 
Q 956 0 581 494 
Q 206 988 206 1678 
Q 206 2153 378 2554 
Q 550 2956 876 3175 
Q 1203 3394 1644 3394 
Q 2231 3394 2613 2919 
L 2613 3319 
L 3131 3319 
L 3131 450 
Q 3131 -325 2973 -648 
Q 2816 -972 2473 -1159 
Q 2131 -1347 1631 -1347 
Q 1038 -1347 672 -1080 
Q 306 -813 319 -275 
z
M 784 1719 
Q 784 1066 1043 766 
Q 1303 466 1694 466 
Q 2081 466 2343 764 
Q 2606 1063 2606 1700 
Q 2606 2309 2336 2618 
Q 2066 2928 1684 2928 
Q 1309 2928 1046 2623 
Q 784 2319 784 1719 
z
" transform="scale(0.015625)"/>
     </defs>
     <use xlink:href="#ArialMT-45"/>
     <use xlink:href="#ArialMT-44" transform="translate(55.609375 0)"/>
     <use xlink:href="#ArialMT-56" transform="translate(111.21875 0)"/>
     <use xlink:href="#ArialMT-48" transform="translate(161.21875 0)"/>
     <use xlink:href="#ArialMT-4f" transform="translate(216.828125 0)"/>
     <use xlink:href="#ArialMT-4c" transform="translate(239.046875 0)"/>
     <use xlink:href="#ArialMT-51" transform="translate(261.265625 0)"/>
     <use xlink:href="#ArialMT-48" transform="translate(316.875 0)"/>
     <use xlink:href="#ArialMT-3" transform="translate(372.484375 0)"/>
     <use xlink:href="#ArialMT-55" transform="translate(400.265625 0)"/>
     <use xlink:href="#ArialMT-44" transform="translate(433.5625 0)"/>
     <use xlink:href="#ArialMT-51" transform="translate(489.171875 0)"/>
     <use xlink:href="#ArialMT-4a" transform="translate(544.78125 0)"/>
     <use xlink:href="#ArialMT-48" transform="translate(600.390625 0)"/>
    </g>
   </g>
   <g id="line2d_75">
    <path d="M 327.484482 294.741316 
L 336.484482 294.741316 
L 345.484482 294.741316 
" style="fill: none; stroke-dasharray: 3.7,1.6; stroke-dashoffset: 0; stroke: #000000"/>
    <defs>
     <path id="m825cfe8322" d="M 0 -4.5 
L -1.010313 -1.390576 
L -4.279754 -1.390576 
L -1.634721 0.531153 
L -2.645034 3.640576 
L -0 1.718847 
L 2.645034 3.640576 
L 1.634721 0.531153 
L 4.279754 -1.390576 
L 1.010313 -1.390576 
z
" style="stroke: #000000; stroke-linejoin: bevel"/>
    </defs>
    <g>
     <use xlink:href="#m825cfe8322" x="336.484482" y="294.741316" style="stroke: #000000; stroke-linejoin: bevel"/>
    </g>
   </g>
   <g id="text_48">
    <!-- baseline (z*) -->
    <g transform="translate(352.684482 297.891316) scale(0.09 -0.09)">
     <defs>
      <path id="ArialMT-5d" d="M 125 0 
L 125 456 
L 2238 2881 
Q 1878 2863 1603 2863 
L 250 2863 
L 250 3319 
L 2963 3319 
L 2963 2947 
L 1166 841 
L 819 456 
Q 1197 484 1528 484 
L 3063 484 
L 3063 0 
L 125 0 
z
" transform="scale(0.015625)"/>
      <path id="ArialMT-d" d="M 200 3741 
L 344 4184 
Q 841 4009 1066 3881 
Q 1006 4447 1003 4659 
L 1456 4659 
Q 1447 4350 1384 3884 
Q 1706 4047 2122 4184 
L 2266 3741 
Q 1869 3609 1488 3566 
Q 1678 3400 2025 2975 
L 1650 2709 
Q 1469 2956 1222 3381 
Q 991 2941 816 2709 
L 447 2975 
Q 809 3422 966 3566 
Q 563 3644 200 3741 
z
" transform="scale(0.015625)"/>
     </defs>
     <use xlink:href="#ArialMT-45"/>
     <use xlink:href="#ArialMT-44" transform="translate(55.609375 0)"/>
     <use xlink:href="#ArialMT-56" transform="translate(111.21875 0)"/>
     <use xlink:href="#ArialMT-48" transform="translate(161.21875 0)"/>
     <use xlink:href="#ArialMT-4f" transform="translate(216.828125 0)"/>
     <use xlink:href="#ArialMT-4c" transform="translate(239.046875 0)"/>
     <use xlink:href="#ArialMT-51" transform="translate(261.265625 0)"/>
     <use xlink:href="#ArialMT-48" transform="translate(316.875 0)"/>
     <use xlink:href="#ArialMT-3" transform="translate(372.484375 0)"/>
     <use xlink:href="#ArialMT-b" transform="translate(400.265625 0)"/>
     <use xlink:href="#ArialMT-5d" transform="translate(433.5625 0)"/>
     <use xlink:href="#ArialMT-d" transform="translate(483.5625 0)"/>
     <use xlink:href="#ArialMT-c" transform="translate(522.484375 0)"/>
    </g>
   </g>
   <g id="line2d_76">
    <path d="M 327.484482 307.687781 
L 336.484482 307.687781 
L 345.484482 307.687781 
" style="fill: none; stroke: #000000; stroke-opacity: 0; stroke-width: 1.5; stroke-linecap: square"/>
    <defs>
     <path id="mac3cabf047" d="M -0 5 
L 5 -5 
L -5 -5 
z
" style="stroke: #999999; stroke-linejoin: miter"/>
    </defs>
    <g>
     <use xlink:href="#mac3cabf047" x="336.484482" y="307.687781" style="fill: #999999; stroke: #999999; stroke-linejoin: miter"/>
    </g>
   </g>
   <g id="text_49">
    <!-- region's own cap -->
    <g transform="translate(352.684482 310.837781) scale(0.09 -0.09)">
     <defs>
      <path id="ArialMT-a" d="M 425 2959 
L 281 3816 
L 281 4581 
L 922 4581 
L 922 3816 
L 772 2959 
L 425 2959 
z
" transform="scale(0.015625)"/>
      <path id="ArialMT-5a" d="M 1034 0 
L 19 3319 
L 600 3319 
L 1128 1403 
L 1325 691 
Q 1338 744 1497 1375 
L 2025 3319 
L 2603 3319 
L 3100 1394 
L 3266 759 
L 3456 1400 
L 4025 3319 
L 4572 3319 
L 3534 0 
L 2950 0 
L 2422 1988 
L 2294 2553 
L 1622 0 
L 1034 0 
z
" transform="scale(0.015625)"/>
      <path id="ArialMT-53" d="M 422 -1272 
L 422 3319 
L 934 3319 
L 934 2888 
Q 1116 3141 1344 3267 
Q 1572 3394 1897 3394 
Q 2322 3394 2647 3175 
Q 2972 2956 3137 2557 
Q 3303 2159 3303 1684 
Q 3303 1175 3120 767 
Q 2938 359 2589 142 
Q 2241 -75 1856 -75 
Q 1575 -75 1351 44 
Q 1128 163 984 344 
L 984 -1272 
L 422 -1272 
z
M 931 1641 
Q 931 1000 1190 694 
Q 1450 388 1819 388 
Q 2194 388 2461 705 
Q 2728 1022 2728 1688 
Q 2728 2322 2467 2637 
Q 2206 2953 1844 2953 
Q 1484 2953 1207 2617 
Q 931 2281 931 1641 
z
" transform="scale(0.015625)"/>
     </defs>
     <use xlink:href="#ArialMT-55"/>
     <use xlink:href="#ArialMT-48" transform="translate(33.296875 0)"/>
     <use xlink:href="#ArialMT-4a" transform="translate(88.90625 0)"/>
     <use xlink:href="#ArialMT-4c" transform="translate(144.515625 0)"/>
     <use xlink:href="#ArialMT-52" transform="translate(166.734375 0)"/>
     <use xlink:href="#ArialMT-51" transform="translate(222.34375 0)"/>
     <use xlink:href="#ArialMT-a" transform="translate(277.953125 0)"/>
     <use xlink:href="#ArialMT-56" transform="translate(297.046875 0)"/>
     <use xlink:href="#ArialMT-3" transform="translate(347.046875 0)"/>
     <use xlink:href="#ArialMT-52" transform="translate(374.828125 0)"/>
     <use xlink:href="#ArialMT-5a" transform="translate(430.4375 0)"/>
     <use xlink:href="#ArialMT-51" transform="translate(502.65625 0)"/>
     <use xlink:href="#ArialMT-3" transform="translate(558.265625 0)"/>
     <use xlink:href="#ArialMT-46" transform="translate(586.046875 0)"/>
     <use xlink:href="#ArialMT-44" transform="translate(636.046875 0)"/>
     <use xlink:href="#ArialMT-53" transform="translate(691.65625 0)"/>
    </g>
   </g>
   <g id="patch_23">
    <path d="M 437.938389 284.944852 
L 455.938389 284.944852 
L 455.938389 278.644852 
L 437.938389 278.644852 
z
" style="fill: #999999; opacity: 0.3"/>
   </g>
   <g id="text_50">
    <!-- capped at 2200 bn EUR -->
    <g transform="translate(463.138389 284.944852) scale(0.09 -0.09)">
     <use xlink:href="#ArialMT-46"/>
     <use xlink:href="#ArialMT-44" transform="translate(50 0)"/>
     <use xlink:href="#ArialMT-53" transform="translate(105.609375 0)"/>
     <use xlink:href="#ArialMT-53" transform="translate(161.21875 0)"/>
     <use xlink:href="#ArialMT-48" transform="translate(216.828125 0)"/>
     <use xlink:href="#ArialMT-47" transform="translate(272.4375 0)"/>
     <use xlink:href="#ArialMT-3" transform="translate(328.046875 0)"/>
     <use xlink:href="#ArialMT-44" transform="translate(355.828125 0)"/>
     <use xlink:href="#ArialMT-57" transform="translate(411.4375 0)"/>
     <use xlink:href="#ArialMT-3" transform="translate(439.21875 0)"/>
     <use xlink:href="#ArialMT-15" transform="translate(467 0)"/>
     <use xlink:href="#ArialMT-15" transform="translate(522.609375 0)"/>
     <use xlink:href="#ArialMT-13" transform="translate(578.21875 0)"/>
     <use xlink:href="#ArialMT-13" transform="translate(633.828125 0)"/>
     <use xlink:href="#ArialMT-3" transform="translate(689.4375 0)"/>
     <use xlink:href="#ArialMT-45" transform="translate(717.21875 0)"/>
     <use xlink:href="#ArialMT-51" transform="translate(772.828125 0)"/>
     <use xlink:href="#ArialMT-3" transform="translate(828.4375 0)"/>
     <use xlink:href="#ArialMT-28" transform="translate(856.21875 0)"/>
     <use xlink:href="#ArialMT-38" transform="translate(922.921875 0)"/>
     <use xlink:href="#ArialMT-35" transform="translate(995.140625 0)"/>
    </g>
   </g>
   <g id="patch_24">
    <path d="M 437.938389 297.891141 
L 455.938389 297.891141 
L 455.938389 291.591141 
L 437.938389 291.591141 
z
" style="fill: #999999; opacity: 0.85"/>
   </g>
   <g id="text_51">
    <!-- capped at 2100 bn EUR -->
    <g transform="translate(463.138389 297.891141) scale(0.09 -0.09)">
     <use xlink:href="#ArialMT-46"/>
     <use xlink:href="#ArialMT-44" transform="translate(50 0)"/>
     <use xlink:href="#ArialMT-53" transform="translate(105.609375 0)"/>
     <use xlink:href="#ArialMT-53" transform="translate(161.21875 0)"/>
     <use xlink:href="#ArialMT-48" transform="translate(216.828125 0)"/>
     <use xlink:href="#ArialMT-47" transform="translate(272.4375 0)"/>
     <use xlink:href="#ArialMT-3" transform="translate(328.046875 0)"/>
     <use xlink:href="#ArialMT-44" transform="translate(355.828125 0)"/>
     <use xlink:href="#ArialMT-57" transform="translate(411.4375 0)"/>
     <use xlink:href="#ArialMT-3" transform="translate(439.21875 0)"/>
     <use xlink:href="#ArialMT-15" transform="translate(467 0)"/>
     <use xlink:href="#ArialMT-14" transform="translate(522.609375 0)"/>
     <use xlink:href="#ArialMT-13" transform="translate(578.21875 0)"/>
     <use xlink:href="#ArialMT-13" transform="translate(633.828125 0)"/>
     <use xlink:href="#ArialMT-3" transform="translate(689.4375 0)"/>
     <use xlink:href="#ArialMT-45" transform="translate(717.21875 0)"/>
     <use xlink:href="#ArialMT-51" transform="translate(772.828125 0)"/>
     <use xlink:href="#ArialMT-3" transform="translate(828.4375 0)"/>
     <use xlink:href="#ArialMT-28" transform="translate(856.21875 0)"/>
     <use xlink:href="#ArialMT-38" transform="translate(922.921875 0)"/>
     <use xlink:href="#ArialMT-35" transform="translate(995.140625 0)"/>
    </g>
   </g>
  </g>
 </g>
 <defs>
  <clipPath id="p0f9324b63e">
   <rect x="54.542607" y="59.04" width="163.983673" height="199.584"/>
  </clipPath>
  <clipPath id="pe1be6cc904">
   <rect x="267.721383" y="59.04" width="163.983673" height="199.584"/>
  </clipPath>
  <clipPath id="p9fae7d0226">
   <rect x="480.900158" y="59.04" width="163.983673" height="199.584"/>
  </clipPath>
  <clipPath id="p63f74ef3b3">
   <rect x="694.078934" y="59.04" width="163.983673" height="199.584"/>
  </clipPath>
 </defs>
</svg>
